<svg t="1722409568853" class="icon" viewBox="0 0 1024 1024" version="1.1" xmlns="http://www.w3.org/2000/svg" p-id="13760" width="16" height="16">
    <path d="M614.3300736 411.5806432c-6.59172907-6.58954667-13.61788587-12.52963413-20.85798187-18.03747733l-0.01309866 0.0120064c-7.45185173-7.1669632-17.570304-11.5810976-28.7257056-11.5810976-22.8958624 0-41.45508907 18.56031893-41.45508907 41.45508906 0 10.13045867 3.63914987 19.4095264 9.67638293 26.61032747l-0.0010912 0c0.0010912 0.0010912 0.00327467 0.00327467 0.00545814 0.00436587 2.90018667 3.45904747 6.35050133 6.44109867 10.2243296 8.8020704 3.90875627 3.22327787 7.74547307 6.39743787 11.33332053 9.98528533l3.41757013 3.41866133c42.96467093 42.91118613 30.1381408 116.84246613-12.82652906 159.80822827L361.76828053 815.3428864c-42.96357867 42.91118613-112.8125504 42.91118613-155.77831146 0l-3.4448576-3.44704107c-42.96685333-42.96357867-42.96685333-112.86385173 0-155.72373546l80.997824-80.97053547c10.39242453-8.24866667 17.06383573-20.98023253 17.06383573-35.27704853 0-24.86715947-20.1583136-45.02547307-45.02547307-45.02547307-9.38385387 0-18.0942368 2.87289813-25.30704426 7.7836768-0.0229216-0.04802667-0.04693547-0.09387093-0.07094934-0.14298987l-0.86339733 0.80773014c-3.1883488 2.29220587-6.07107093 4.98063573-8.56084373 8.0107136l-84.1741664 78.76456c-79.12367253 79.17824853-79.12367253 208.67478293 0 287.7427872l3.41757013 3.41647786c79.12367253 79.06909653 208.56453867 79.06909653 287.6882112 0l183.28478293-183.33935893c79.01451947-79.11930667 85.7143104-203.9299168 6.70088214-282.99901333L614.3300736 411.5806432z" fill="#515151" p-id="13761"></path>
    <path d="M878.52754133 142.7245408l-3.41757013-3.41757013c-79.12258133-79.12367253-208.56344747-79.12367253-287.68712 0L404.13806933 322.6452384c-79.12367253 79.12367253-83.4810464 193.38249493-4.35737386 272.55746987l3.36299306 3.31169173c3.5933056 3.5922144 7.32305173 6.97922133 11.13029654 10.22760427 2.75610453 3.07810453 5.99357227 5.71305067 9.592336 7.7967744 0.02728853 0.0218304 0.05566827 0.04475307 0.08295573 0.06658346l0.0120064-0.0109152c5.73597227 3.29859307 12.3822784 5.1956672 19.4750176 5.1956672 21.6144096 0 39.13559467-17.52336853 39.13559467-39.13559466 0-6.10054187-1.39715413-11.87471787-3.88801814-17.02235734l0 0c-5.17383573-11.61711787-14.85895147-18.68911893-21.55765013-25.3889088l-3.36408533-3.30950826c-42.96357867-42.96357867-26.6485312-105.382528 16.31504853-148.34610774l183.39284373-183.28587413c42.85770133-42.96576213 112.73068587-42.96576213 155.69644694 0l3.41975253 3.36299307c42.96467093 42.96685333 42.96467093 112.89441387 0 155.8056l-80.7325824 80.78715946c-10.9829408 8.1373312-18.105152 21.18980587-18.105152 35.90685974 0 24.66522667 19.99567573 44.66199467 44.66199467 44.66199466 8.58485653 0 16.60102827-2.4275552 23.40778773-6.62556693 0.05130133 0.0873216 0.09932907 0.16809493 0.1506304 0.2565088l1.2519808-1.1559264c3.85745493-2.58255147 7.2837568-5.7534368 10.16429547-9.3783968l85.0844992-78.51023467C957.65121387 351.29017067 957.65121387 221.84712107 878.52754133 142.7245408z" fill="#515151" p-id="13762"></path>
</svg>
