<svg t="1722419065249" class="icon" viewBox="0 0 1024 1024" version="1.1" xmlns="http://www.w3.org/2000/svg" p-id="15202" width="16" height="16">
    <path d="M172.18370333 560.54518557a48.54518557 48.54518557 0 1 0 0-97.09037114 48.54518557 48.54518557 0 0 0 0 97.09037114zM512 560.54518557a48.54518557 48.54518557 0 1 0 0-97.09037114 48.54518557 48.54518557 0 0 0 0 97.09037114zM851.81629667 560.54518557a48.54518557 48.54518557 0 1 0 0-97.09037114 48.54518557 48.54518557 0 0 0 0 97.09037114z" fill="#515151" p-id="15203"></path>
    <path d="M172.18370333 487.72740779a24.27259221 24.27259221 0 1 0 0 48.54518442 24.27259221 24.27259221 0 0 0 0-48.54518442z m339.81629667 0a24.27259221 24.27259221 0 1 0 0 48.54518442 24.27259221 24.27259221 0 0 0 0-48.54518442z m339.81629667 0a24.27259221 24.27259221 0 1 0 0 48.54518442 24.27259221 24.27259221 0 0 0 0-48.54518442zM172.18370333 560.54518557a48.54518557 48.54518557 0 1 0 0-97.09037114 48.54518557 48.54518557 0 0 0 0 97.09037114z m339.81629667 0a48.54518557 48.54518557 0 1 0 0-97.09037114 48.54518557 48.54518557 0 0 0 0 97.09037114z m388.3614811-48.54518557a48.54518557 48.54518557 0 1 1-97.09036999 0 48.54518557 48.54518557 0 0 1 97.09036999 0z" fill="#515151" p-id="15204"></path>
    <path d="M87.22963001 512a84.95407445 84.95407445 0 1 1 169.90814777 0 84.95407445 84.95407445 0 0 1-169.90814777 0zM172.18370333 499.86370333a12.13629667 12.13629667 0 1 0 0 24.27259334 12.13629667 12.13629667 0 0 0 0-24.27259334z m254.86222222 12.13629667a84.95407445 84.95407445 0 1 1 169.9081489 0 84.95407445 84.95407445 0 0 1-169.9081489 0z m84.95407445-12.13629667a12.13629667 12.13629667 0 1 0 0 24.27259334 12.13629667 12.13629667 0 0 0 0-24.27259334z m254.86222222 12.13629667a84.95407445 84.95407445 0 1 1 169.90814777 0 84.95407445 84.95407445 0 0 1-169.90814777 0z m84.95407445-12.13629667a12.13629667 12.13629667 0 1 0 0 24.27259334 12.13629667 12.13629667 0 0 0 0-24.27259334z" fill="#515151" p-id="15205"></path>
</svg>
