<svg t="1722438976375" class="icon" viewBox="0 0 1024 1024" version="1.1" xmlns="http://www.w3.org/2000/svg" p-id="23359" width="16" height="16">
    <path d="M128.085333 877.226667a128 128 0 0 1-42.496-175.957334L402.773333 182.186667a128 128 0 0 1 218.453334 0l317.184 519.04A128 128 0 0 1 829.184 896H194.816a128 128 0 0 1-66.730667-18.773333zM829.184 810.666667a42.666667 42.666667 0 0 0 36.394667-64.896L548.394667 226.730667a42.666667 42.666667 0 0 0-72.789334 0L158.421333 745.770667A42.666667 42.666667 0 0 0 194.816 810.666667h634.368zM469.333333 384h85.333334v256h-85.333334V384z m0 298.666667h85.333334v85.333333h-85.333334v-85.333333z" fill="#515151" p-id="23360"></path>
</svg>
