<svg t="1722483790704" class="icon" viewBox="0 0 1024 1024" version="1.1" xmlns="http://www.w3.org/2000/svg" p-id="9141" width="16" height="16">
    <path d="M542.13392892 210.66071405q0-12.2419086-8.94601016-21.18791876t-21.18791876-8.94601017-21.18791875 8.94601017-8.94601018 21.18791876 8.94601018 21.18791876 21.18791875 8.94601017 21.18791876-8.94601017 8.94601016-21.18791876z m391.74107108 436.94196405l0 165.73660703q0 10.3585383-9.41685233 14.1252789-3.76674142 0.94168515-5.65011173 0.94168515-6.12095389 0-10.82938045-4.23758359l-43.78836484-43.78836484q-56.03027344 67.33049689-149.96337891 106.64585623t-202.22691091 39.31536018-202.22691093-39.31536018-149.96337891-106.64585623l-43.78836483 43.78836484q-4.23758359 4.23758359-10.82938046 4.23758359-1.88337031 0-5.65011173-0.94168515-9.41685233-3.76674142-9.41685233-14.1252789l0-165.73660703q0-6.59179688 4.2375836-10.82938046t10.82938046-4.23758359l165.73660703 0q10.3585383 0 14.12527889 9.41685233 3.76674142 8.94601016-3.29589844 16.47949218l-47.08426327 47.08426328q31.54645624 42.84667969 89.2246789 72.27434454t127.83377499 38.84451718l0-304.63518439-90.40178596 1e-8q-12.2419086 0-21.18791875-8.94601017t-8.94601016-21.18791875l0-60.26785704q0-12.2419086 8.94601016-21.18791876t21.18791875-8.94601016l90.40178596 0 0-76.74734921q-27.30887265-16.0086492-43.78836484-43.55294376t-16.47949218-60.5032781q0-49.90931955 35.31319765-85.22251638t85.2225164-35.31319767 85.22251638 35.31319766 35.31319767 85.22251639q0 32.95898438-16.47949219 60.5032781t-43.78836484 43.55294376l0 76.74734921 90.40178595 0q12.2419086 0 21.18791876 8.94601016t8.94601017 21.18791877l0 60.26785703q0 12.2419086-8.94601017 21.18791875t-21.18791876 8.94601017l-90.40178595 0 0 304.63518438q70.15555234-9.41685233 127.83377499-38.84451718t89.2246789-72.27434453l-47.08426328-47.08426329q-7.06263986-7.53348202-3.29589843-16.47949219 3.76674142-9.41685233 14.1252789-9.41685231l165.73660702 0q6.59179688 0 10.82938046 4.23758358t4.23758359 10.82938046z" fill="#515151" p-id="9142"></path>
</svg>
