<svg t="1722484019088" class="icon" viewBox="0 0 1024 1024" version="1.1" xmlns="http://www.w3.org/2000/svg" p-id="5969" width="16" height="16">
    <path d="M803.85066667 512.23466667c0 18.848-15.28533333 34.13333333-34.13333334 34.13333333h-68.26666666c-18.848 0-34.13333333-15.28533333-34.13333334-34.13333333s15.28533333-34.13333333 34.13333334-34.13333334h68.26666666c18.848 0 34.13333333 15.28533333 34.13333334 34.13333334zM429.06666667 512.23466667c0 18.848-15.28533333 34.13333333-34.13333334 34.13333333h-68.26666666c-18.848 0-34.13333333-15.28533333-34.13333334-34.13333333s15.28533333-34.13333333 34.13333334-34.13333334h68.26666666c18.848 0 34.13333333 15.28533333 34.13333334 34.13333334zM980.40533333 536.37333333c-13.33333333 13.33333333-34.944 13.33333333-48.26666666 0L787.31733333 391.56266667c-13.33333333-13.33333333-13.33333333-34.944 0-48.26666667 13.33333333-13.33333333 34.944-13.33333333 48.26666667 0L980.40533333 488.10666667c13.33333333 13.32266667 13.33333333 34.93333333 0 48.26666666z" fill="#515151" p-id="5970"></path>
    <path d="M787.31733333 681.19466667c-13.33333333-13.33333333-13.33333333-34.944 0-48.26666667L932.13866667 488.10666667c13.33333333-13.33333333 34.944-13.33333333 48.26666666 0 13.33333333 13.33333333 13.33333333 34.944 0 48.26666666L835.59466667 681.19466667c-13.33333333 13.32266667-34.944 13.32266667-48.27733334 0zM237.10933333 536.37333333c-13.33333333 13.33333333-34.944 13.33333333-48.26666666 0L44.02133333 391.56266667c-13.33333333-13.33333333-13.33333333-34.944 0-48.26666667 13.33333333-13.33333333 34.944-13.33333333 48.26666667 0L237.10933333 488.10666667c13.32266667 13.32266667 13.32266667 34.93333333 0 48.26666666z" fill="#515151" p-id="5971"></path>
    <path d="M44.02133333 681.19466667c-13.33333333-13.33333333-13.33333333-34.944 0-48.26666667L188.832 488.10666667c13.33333333-13.33333333 34.944-13.33333333 48.26666667 0 13.33333333 13.33333333 13.33333333 34.944 0 48.26666666L92.288 681.19466667c-13.32266667 13.32266667-34.944 13.32266667-48.26666667 0z" fill="#515151" p-id="5972"></path>
    <path d="M608.75733333 536.37333333c-13.33333333 13.33333333-34.944 13.33333333-48.26666666 0L415.66933333 391.56266667c-13.33333333-13.33333333-13.33333333-34.944 0-48.26666667 13.33333333-13.33333333 34.944-13.33333333 48.26666667 0L608.75733333 488.10666667c13.33333333 13.32266667 13.33333333 34.93333333 0 48.26666666z" fill="#515151" p-id="5973"></path>
    <path d="M415.66933333 681.19466667c-13.33333333-13.33333333-13.33333333-34.944 0-48.26666667L560.48 488.10666667c13.33333333-13.33333333 34.944-13.33333333 48.26666667 0 13.33333333 13.33333333 13.33333333 34.944 0 48.26666666L463.936 681.19466667c-13.32266667 13.32266667-34.93333333 13.32266667-48.26666667 0z" fill="#515151" p-id="5974"></path>
</svg>
