<svg t="1722482436641" class="icon" viewBox="0 0 1024 1024" version="1.1" xmlns="http://www.w3.org/2000/svg" p-id="6983" width="16" height="16">
    <path d="M513.60000031 153.33333364L413.19999969 253.33333302h200.00000062l-99.6-99.99999938M192.00000031 333.33333364v519.99999938h639.99999938V333.33333364H192.00000031m319.99999969-280.00000031l199.99999969 199.99999969h120a79.99999969 79.99999969 0 0 1 80.00000062 80.00000062v519.99999938a79.99999969 79.99999969 0 0 1-80.00000062 80.00000062H192.00000031a79.99999969 79.99999969 0 0 1-80.00000062-80.00000062V333.33333364a79.99999969 79.99999969 0 0 1 80.00000062-80.00000062h120l199.99999969-199.99999969M312.00000031 773.33333333v-160.00000031h199.99999969v160.00000031H312.00000031m279.99999938-40.00000031v-279.99999938h160.00000031v279.99999938h-160.00000031m-319.99999969-199.99999969V413.33333333h199.99999969v120H272z" fill="#515151" p-id="6984"></path>
</svg>
