<svg xmlns="http://www.w3.org/2000/svg" width="16" height="16" fill="none" stroke="currentColor" stroke-width="1.5" stroke-linecap="round" stroke-linejoin="round" viewBox="0 0 1024 1024">
    <path d="M64 320a64 64 0 0 1 64-64h768a64 64 0 0 1 64 64v384a64 64 0 0 1-64 64H128a64 64 0 0 1-64-64V320z" fill="#6699FF"></path>
    <path
        d="M375.072 395.968H274.496V614.4h100.864c22.528 0 41.28-4.128 54.816-13.184l0.096-0.064c16.192-11.2 24.064-28.672 24.064-51.04 0-14.848-3.712-27.68-11.52-37.184a50.144 50.144 0 0 0-18.72-13.92c4.672-3.232 8.704-7.104 12.032-11.648l0.128-0.192c6.272-9.248 9.44-20.32 9.44-32.96 0-17.248-6.144-31.456-18.336-41.984l-0.032-0.032c-13.056-11.104-30.848-16.224-52.256-16.224z m32.256 104.608c3.52 0.672 6.784 1.536 9.824 2.592 8.736 3.04 15.584 7.648 20.704 13.824-6.912-8.352-16.96-13.824-30.528-16.416 10.368-4.032 18.144-9.504 23.616-16.992a45.568 45.568 0 0 1-14.432 12.64c-2.816 1.6-5.856 3.072-9.184 4.352z m-86.336-64.16h45.76c13.28 0 21.44 2.24 26.112 5.664 3.68 2.784 6.336 7.776 6.336 16.16 0 9.28-2.688 15.008-6.528 18.336-4.416 3.296-12.768 5.792-26.528 5.792h-45.12v-45.952z m0 86.4h50.336c14.464 0 23.68 2.56 28.96 6.464 4.544 3.584 7.552 9.728 7.552 20.256 0 4.896-0.96 8.64-2.624 11.616a19.872 19.872 0 0 1-7.936 7.584c-5.856 3.264-14.688 5.216-26.816 5.216h-49.472v-51.136zM545.92 452.704v-51.264l-45.632 18.816v32.448h-26.784v39.872h26.784v77.696c0 13.056 3.104 23.712 10.24 31.616 7.712 8.768 19.328 12.512 33.312 12.512h31.456v-39.872h-25.984c-1.792 0-2.464-0.32-2.784-0.544-0.256-0.416-0.608-1.312-0.608-3.712v-77.696h33.12v-39.872H545.92zM690.112 448.672a60 60 0 0 0-37.664 12.576v-8.544h-45.632V614.4h45.632v-95.648c1.088-10.56 4.608-18.016 10.016-22.944l0.096-0.096a23.68 23.68 0 0 1 16.896-6.88c10.112 0 16.544 2.688 20.544 7.04 4.128 4.48 6.72 11.744 6.72 23.136V614.4h45.664v-98.272c0-21.312-4.864-38.4-15.68-50.208-10.944-11.872-26.88-17.248-46.592-17.248z m-32 42.4l0 0z m-12.064-14.688z"
        fill="#FFFFFF"></path>
</svg>
