<svg t="1722480431626" class="icon" viewBox="0 0 1024 1024" version="1.1" xmlns="http://www.w3.org/2000/svg" p-id="6021" width="16" height="16">
    <path d="M312.00000031 471.99999969a30 30 0 0 1 30 30v140.00000062A30 30 0 0 1 312.00000031 672.00000031H171.99999969a30 30 0 0 1-30-30v-140.00000062A30 30 0 0 1 171.99999969 471.99999969h140.00000062z m-30 60h-80.00000062v80.00000062h80.00000062v-80.00000062zM572 471.99999969a30 30 0 0 1 30 30v140.00000062A30 30 0 0 1 572 672.00000031h-139.99999969a30 30 0 0 1-30-30v-140.00000062A30 30 0 0 1 432.00000031 471.99999969h139.99999969z m-30 60h-79.99999969v80.00000062h79.99999969v-80.00000062zM312.00000031 711.99999969a30 30 0 0 1 30 30v140.00000062A30 30 0 0 1 312.00000031 912.00000031H171.99999969a30 30 0 0 1-30-30v-140.00000062A30 30 0 0 1 171.99999969 711.99999969h140.00000062z m-30 60h-80.00000062v80.00000062h80.00000062v-80.00000062zM572 711.99999969a30 30 0 0 1 30 30v140.00000062A30 30 0 0 1 572 912.00000031h-139.99999969a30 30 0 0 1-30-30v-140.00000062A30 30 0 0 1 432.00000031 711.99999969h139.99999969z m-30 60h-79.99999969v80.00000062h79.99999969v-80.00000062zM831.99999969 471.99999969a30 30 0 0 1 30 30v140.00000062A30 30 0 0 1 831.99999969 672.00000031h-139.99999969a30 30 0 0 1-30-30v-140.00000062A30 30 0 0 1 692 471.99999969h139.99999969z m-30 60h-79.99999969v80.00000062h79.99999969v-80.00000062zM411.99999969 111.99999969v60h200.00000062V111.99999969h79.99999969v60h220.00000031a40.00000031 40.00000031 0 0 1 39.99999938 40.00000031v199.99999969a40.00000031 40.00000031 0 0 1-39.99999938 40.00000031H111.99999969a40.00000031 40.00000031 0 0 1-39.99999938-40.00000031V212a40.00000031 40.00000031 0 0 1 39.99999938-40.00000031h220.00000031V111.99999969h79.99999969z m-79.99999969 140.00000062H152v120h720v-120h-180v60h-79.99999969v-60H411.99999969v60h-79.99999969v-60z" fill="#515151" p-id="6022"></path>
</svg>
