<svg t="1722438526918" class="icon" viewBox="0 0 1024 1024" version="1.1" xmlns="http://www.w3.org/2000/svg" p-id="22720" width="16" height="16">
    <path d="M971.39 759.5V320.75q0-17.82-11.25-31.89-10.32-13.14-28.14-14.07h-60l0.93-6.57q0-22.5-15.93-37.5-15-15.93-38.43-15.93H206.39q-22.5 0.93-37.5 18.75-15.93 17.82-16.89 40.32H94.82q-17.82 0-30 12.18t-12.18 29.07L51.71 753.86q0.93 17.82 13.14 29.07 12.18 12.18 30 12.18h57.18v4.68q0 23.43 15.93 38.43 15 15.93 38.43 15.93h612.18q23.43 0.93 37.5-8.43 15-9.39 15.93-30.93h60q17.82-1.89 29.07-19.68 10.32-16.89 10.32-35.64zM152 754.82H92V314.18h60v440.64z m679.68 39.36q0 5.64-6.57 12.18-7.5 7.5-13.14 8.43h-600q-5.64-0.93-12.18-8.43-7.5-6.57-7.5-12.18V274.79q0-5.64 4.68-11.25t9.39-6.57L212 254.15h600q5.64 0.93 12.18 8.43 7.5 6.57 7.5 12.18v519.39zM932 774.5h-60V314.18l57.18-1.89q2.82-0.93 2.82 1.89v440.64q0 3.75 1.89 11.25 0.93 7.5-1.89 8.43z m-513.75-254.07q31.89-0.93 53.43-21.57 20.64-19.68 21.57-50.64-0.93-30.93-21.57-51.57-21.57-20.64-53.43-21.57-30.93 0.93-51.57 21.57-21.57 20.64-22.5 51.57 0.93 30.93 21.57 50.64 21.57 20.64 52.5 21.57z m0-108.75q15.93 0 27.18 10.32 10.32 10.32 10.32 26.25 0 15-10.32 25.32-11.25 10.32-27.18 10.32-15 0-26.25-10.32-10.32-10.32-10.32-25.32 0-15.93 10.32-26.25 11.25-10.32 26.25-10.32zM768.89 467q-66.57 17.82-102.18 54.39t-55.32 71.25q-16.89 26.25-30 40.32-14.07 14.07-30.93 14.07-25.32-0.93-42.18-9.39-17.82-7.5-33.75-16.89-15.93-10.32-35.64-18.75T392 593.57q-55.32 4.68-101.25 44.07t-54.39 52.5l-4.68 47.82q0.93 7.5 5.64 12.18 5.64 4.68 13.14 4.68H773.6q7.5 0 13.14-4.68 4.68-4.68 5.64-12.18v-254.07q-0.93-8.43-7.5-14.07-7.5-4.68-15.93-2.82z m-14.07 250.32H269.18q18.75-22.5 54.39-54.39Q358.25 632 392 628.25q18.75 0.93 33.75 7.5t29.07 15.93q17.82 10.32 39.39 20.64 22.5 9.39 54.39 10.32l2.82 0.93q32.82-1.89 53.43-22.5t37.5-48.75q17.82-29.07 43.14-54.39 26.25-24.39 69.39-41.25v200.64z" fill="#515151" p-id="22721"></path>
</svg>
