<svg t="1722422591704" class="icon" viewBox="0 0 1024 1024" version="1.1" xmlns="http://www.w3.org/2000/svg" p-id="7909" width="16" height="16">
    <path d="M131.28561499 99.58887373h761.42877002c17.49801491 0 31.69674127 14.19872636 31.69674126 31.69674126v761.42877002a31.69674127 31.69674127 0 0 1-31.69674126 31.69674126H131.28561499A31.69674127 31.69674127 0 0 1 99.58887373 892.71438501V131.28561499C99.58887373 113.78760009 113.78760009 99.58887373 131.28561499 99.58887373zM158.5047493 158.5047493v706.9905014h706.9905014V158.5047493H158.5047493z m0 176.74762536h706.9905014v58.91587557H158.5047493V335.25237466z m530.24287604-117.83174979h117.83174979v58.9158742h-117.83174979V217.42062487zM217.42062487 217.42062487h294.57937513v58.9158742H217.42062487V217.42062487z m0 235.66349956h176.74762536v58.91587557H217.42062487v-58.91587557z m294.57937513-58.9158742v471.32700047h-58.91587557v-471.32700047h58.91587557z m-294.57937513 176.74762534h176.74762536v58.9158742H217.42062487v-58.9158742z m0 117.83174977h176.74762536v58.91587559H217.42062487v-58.91587559z" fill="#2c2c2c" fill-opacity=".7" p-id="7910"></path>
</svg>
