<svg t="1722435813724" class="icon" viewBox="0 0 1024 1024" version="1.1" xmlns="http://www.w3.org/2000/svg" p-id="6175" width="16" height="16">
    <path d="M819.2 102.4a102.4 102.4 0 0 1 102.4 102.4v614.4a102.4 102.4 0 0 1-102.4 102.4H204.8a102.4 102.4 0 0 1-102.4-102.4V204.8a102.4 102.4 0 0 1 102.4-102.4h614.4z m0 102.4H204.8v614.4h614.4V204.8z m-66.56 168.7552c19.0464 18.5344 20.3776 47.616 4.096 67.584l-4.4544 4.8128-267.9808 256a54.6304 54.6304 0 0 1-69.7856 4.2496l-5.0176-4.1984-137.728-131.4304A49.8688 49.8688 0 0 1 271.36 498.176c19.0976-18.5856 49.2032-20.1216 70.144-4.608l5.0176 4.2496 100.352 95.6928 230.5536-220.2624a54.5792 54.5792 0 0 1 75.1616 0.3072z" fill="#515151" p-id="6176"></path>
</svg>
