<svg t="1724557549666" class="icon" viewBox="0 0 1024 1024" version="1.1" xmlns="http://www.w3.org/2000/svg" p-id="6884" width="16" height="16">
    <path d="M946.00390625 795.79882813h-83.05664063c-8.87695313 0-15.99609375-7.20703125-15.99609374-15.99609376v-29.44335937c0-8.87695313 7.20703125-15.99609375 15.99609375-15.99609375h21.53320312c8.87695313 0 15.99609375-7.20703125 15.99609375-15.99609375V305.72070312c0-8.87695313-7.20703125-15.99609375-15.99609375-15.99609374h-21.53320312c-8.87695313 0-15.99609375-7.20703125-15.99609375-15.99609375v-29.44335938c0-8.87695313 7.20703125-15.99609375 15.99609375-15.99609375h83.05664062c8.87695313 0 15.99609375 7.20703125 15.99609375 15.99609375v535.60546875c0 8.7890625-7.20703125 15.90820313-15.99609375 15.90820313zM77.99609375 795.79882813h83.05664063c8.87695313 0 15.99609375-7.20703125 15.99609374-15.99609376v-29.44335937c0-8.87695313-7.20703125-15.99609375-15.99609375-15.99609375H139.51953125c-8.87695313 0-15.99609375-7.20703125-15.99609375-15.99609375V305.72070312c0-8.87695313 7.20703125-15.99609375 15.99609375-15.99609374h21.53320313c8.87695313 0 15.99609375-7.20703125 15.99609374-15.99609375v-29.44335938c0-8.87695313-7.20703125-15.99609375-15.99609374-15.99609375H77.99609375c-8.7890625-0.08789063-15.99609375 7.03125-15.99609375 15.90820313v535.60546875c0 8.87695313 7.20703125 15.99609375 15.99609375 15.99609375zM727.77148438 871.56054688h-431.54296876c-37.52929688 0-68.11523438-30.49804688-68.11523437-68.11523438V220.46679687c0-37.52929688 30.49804688-68.11523438 68.11523438-68.11523437h431.54296874c37.52929688 0 68.11523438 30.49804688 68.11523438 68.11523438v583.06640625c-0.08789063 37.52929688-30.5859375 68.02734375-68.11523438 68.02734375z m-431.54296876-657.59765625c-3.60351563 0-6.59179688 2.90039063-6.59179687 6.59179687v583.06640625c0 3.60351563 2.90039063 6.59179688 6.59179688 6.59179688h431.54296874c3.60351563 0 6.59179688-2.90039063 6.59179688-6.59179688V220.46679687c0-3.60351563-2.90039063-6.59179688-6.59179687-6.59179687h-431.54296876z" fill="#515151" p-id="6885"></path>
    <path d="M740.77929688 753.08398438L651.65820313 637.15625c-10.72265625-13.97460938-30.9375-16.08398438-44.38476563-4.65820313l-72.24609375 61.69921876c-13.79882813 11.77734375-34.71679688 9.140625-45.08789063-5.71289063L410.22265625 575.28125c-10.28320313-14.58984375-30.67382813-17.40234375-44.56054688-6.15234375L278.2109375 640.14453125c-13.18359375 10.72265625-32.60742188 8.70117188-43.2421875-4.48242188-10.72265625-13.18359375-8.70117188-32.60742188 4.48242188-43.24218749l138.60351562-112.50000001c13.79882813-11.25 34.27734375-8.34960938 44.56054688 6.15234375l78.74999999 111.796875c10.45898438 14.765625 31.37695313 17.40234375 45.08789063 5.71289063l70.13671875-59.85351563c13.359375-11.42578125 33.66210938-9.31640625 44.38476563 4.65820313l128.58398437 167.25585937c10.37109375 13.44726563 7.82226563 32.78320313-5.625 43.15429688-13.44726563 10.28320313-32.78320313 7.734375-43.15429688-5.71289063zM567.63476563 464.71484375c-11.953125 0-24.08203125-2.28515625-35.859375-7.11914063-48.42773438-19.86328125-71.63085938-75.32226563-51.76757813-123.74999999 19.86328125-48.42773438 75.32226563-71.63085938 123.75-51.76757813 23.37890625 9.58007813 41.66015625 27.7734375 51.41601563 51.15234375 9.84375 23.37890625 9.93164063 49.21875 0.3515625 72.59765625-15.02929688 36.65039063-50.53710938 58.88671875-87.89062501 58.88671875z m0.26367187-145.8984375c-6.6796875 0-13.44726563 1.31835938-19.86328125 4.04296875-12.65625 5.2734375-22.41210938 15.1171875-27.59765625 27.68554688-5.18554688 12.56835938-5.09765625 26.45507813 0.26367188 39.02343749 5.2734375 12.65625 15.1171875 22.41210938 27.68554687 27.59765625l-8.26171875 20.21484375 8.26171875-20.21484375c26.015625 10.63476563 55.8984375-1.84570313 66.62109375-27.86132812 5.18554688-12.56835938 5.09765625-26.45507813-0.26367188-39.0234375-5.2734375-12.65625-15.1171875-22.41210938-27.68554687-27.59765625-6.15234375-2.54882813-12.65625-3.8671875-19.16015625-3.8671875z" fill="#515151" p-id="6886"></path>
</svg>
