<svg t="1724323442040" class="icon" viewBox="0 0 1024 1024" version="1.1" xmlns="http://www.w3.org/2000/svg" p-id="6183" width="16" height="16">
    <path d="M263.84 80.18a45 45 0 0 0-63.66 63.6l108.18 108.24L96.2 464.18l-0.36 0.3a124.98 124.98 0 0 0 0 175.02l0.36 0.3 207.96 208.02a122.28 122.28 0 0 0 175.68 0l343.98-343.98a45 45 0 0 0 0-63.66L503.84 120.2a45 45 0 0 0-63.66 0L372.02 188.36 263.84 80.18z m108.18 235.44l28.2 28.2a45 45 0 0 0 63.6-63.6l-28.2-28.2 36.36-36.36 256.38 256.32-34.98 35.04H180.62l191.4-191.4z m-191.4 281.4h422.76l-187.2 187.2c-14.4 14.4-33.96 14.4-48.36 0l-187.2-187.2z m695.58 66.66a45 45 0 0 0-88.44 0c-3.54 18.84-14.88 33.6-34.8 59.4l-1.08 1.44c-18.12 23.52-44.88 58.56-44.88 107.46a124.98 124.98 0 1 0 250.02 0c0-48.9-26.76-84-44.88-107.4l-1.2-1.56c-19.8-25.8-31.2-40.5-34.68-59.34z m-79.2 168.3c0-15 7.2-28.02 26.16-52.5l4.32-5.58c1.44-1.86 3-3.78 4.5-5.82l4.5 5.76 4.38 5.64c18.9 24.48 26.16 37.44 26.16 52.5a34.98 34.98 0 0 1-70.02 0z" fill="#515151" p-id="6184"></path>
</svg>
