<svg t="1722436464947" class="icon" viewBox="0 0 1024 1024" version="1.1" xmlns="http://www.w3.org/2000/svg" p-id="20315" width="16" height="16">
    <path d="M895.18332799 270.69806577L753.30193423 128.81667201A99.42053925 99.42053925 0 0 0 615.56306132 125.19196445l-103.56306132 103.56306132-66.79817482-64.20909746a51.78153127 51.78153127 0 0 0-73.52977423 73.52977301L435.88114963 304.87387614 149.52928355 591.22574222a103.56306132 103.56306132 0 0 0-29.5154726 62.65565276L97.74775349 869.81037868a51.78153127 51.78153127 0 0 0 15.01664354 41.42522429A51.78153127 51.78153127 0 0 0 149.52928355 926.25224651h4.66033777l215.9289837-19.67698133a103.56306132 103.56306132 0 0 0 62.65565276-29.51547259l288.94094222-288.94094222 64.20909868 64.20909868a51.78153127 51.78153127 0 0 0 73.52977301 0 51.78153127 51.78153127 0 0 0 0-73.52977423l-64.20909746-64.20909868 103.56306132-103.56306132a99.42053925 99.42053925 0 0 0-3.62470756-140.32794905z m-673.15990043 393.53963498L512 375.29675852l139.29231762 139.81013333-144.47047111 144.47047112" fill="#515151" p-id="20316"></path>
</svg>
