<svg t="1722419203306" class="icon" viewBox="0 0 1024 1024" version="1.1" xmlns="http://www.w3.org/2000/svg" p-id="15361" width="16" height="16">
    <path d="M853.333333 96H170.666667C130.133333 96 96 130.133333 96 170.666667v682.666666c0 40.533333 34.133333 74.666667 74.666667 74.666667h682.666666c40.533333 0 74.666667-34.133333 74.666667-74.666667V170.666667c0-40.533333-34.133333-74.666667-74.666667-74.666667z m-682.666666 64h682.666666c6.4 0 10.666667 4.266667 10.666667 10.666667v213.333333h-704V170.666667c0-6.4 4.266667-10.666667 10.666667-10.666667zM160 853.333333V448H341.333333v416H170.666667c-6.4 0-10.666667-4.266667-10.666667-10.666667z m693.333333 10.666667H405.333333V448h458.666667v405.333333c0 6.4-4.266667 10.666667-10.666667 10.666667z" fill="#515151" p-id="15362"></path>
</svg>
