<svg t="1722482560339" class="icon" viewBox="0 0 1024 1024" version="1.1" xmlns="http://www.w3.org/2000/svg" p-id="8020" width="16" height="16">
    <path d="M849.5 962v-56.25h56.25v-56.25h56.25v112.5h-112.5z m56.25-843.75h-56.25V62h112.5v112.5h-56.25V118.25z m-56.25 731.25H174.5V174.5h675v675z m-112.5-562.5H287v450h450V287z m-337.5 56.25c31.10625001 0 56.25 25.14375001 56.25 56.25s-25.14375001 56.25-56.25 56.25-56.25-25.14375001-56.25-56.25 25.14375001-56.25 56.25-56.25z m18.61875001 337.5H343.25v-84.20625001c25.2 30.2625 52.59375001 74.98125001 74.86875001 84.20625001zM680.75 475.1V680.75H433.5875c75.99375001-18.3375 168.91875001-295.7625 247.1625-205.65zM118.25 174.5H62V62h112.5v56.25H118.25v56.25z m0 731.25h56.25v56.25H62v-112.5h56.25v56.25z" fill="#515151" p-id="8021"></path>
</svg>
