<svg t="1722485578034" class="icon" viewBox="0 0 1024 1024" version="1.1" xmlns="http://www.w3.org/2000/svg" p-id="6060" width="16" height="16">
    <path d="M632 752H272c-18 0-30 12-30 30s15 30 30 30h360c18 0 30-12 30-30s-15-30-30-30zM872 92H272c-18 0-30 12-30 30s12 30 30 30h570c18 0 30 12 30 30v570c0 18 12 30 30 30s30-12 30-30V152c0-33-27-60-60-60z" fill="#515151" p-id="6061"></path>
    <path d="M752 212H152c-33 0-60 27-60 60v600c0 33 27 60 60 60h600c33 0 60-27 60-60V272c0-33-27-60-60-60z m0 630c0 15-15 30-30 30H182c-15 0-30-15-30-30V302c0-15 15-30 30-30h540c15 0 30 15 30 30v540z" fill="#515151" p-id="6062"></path>
</svg>
