<svg t="1722485972536" class="icon" viewBox="0 0 1024 1024" version="1.1" xmlns="http://www.w3.org/2000/svg" p-id="6222" width="16" height="16">
    <path d="M712.832 456.832a42.666667 42.666667 0 0 0-60.330667-60.330667l-85.333333 85.333334a42.666667 42.666667 0 0 0 0 60.330666l85.333333 85.333334a42.666667 42.666667 0 0 0 60.330667-60.330667L657.664 512l55.168-55.168z" fill="#515151" p-id="6223"></path>
    <path d="M192 938.666667h640a106.666667 106.666667 0 0 0 106.666667-106.666667v-640A106.666667 106.666667 0 0 0 832 85.333333h-640A106.666667 106.666667 0 0 0 85.333333 192v640A106.666667 106.666667 0 0 0 192 938.666667z m0-768H341.333333v682.666666H192a21.333333 21.333333 0 0 1-21.333333-21.333333v-640a21.333333 21.333333 0 0 1 21.333333-21.333333z m640 682.666666H426.666667V170.666667h405.333333a21.333333 21.333333 0 0 1 21.333333 21.333333v640a21.333333 21.333333 0 0 1-21.333333 21.333333z" fill="#515151" p-id="6224"></path>
</svg>
