<svg t="1722436581602" class="icon" viewBox="0 0 1024 1024" version="1.1" xmlns="http://www.w3.org/2000/svg" p-id="20476" width="16" height="16">
    <path d="M549.63768853 58.3452448a39.59466667 39.59466667 0 0 1 12.42453334 5.1427552c2.91271147 1.8204448 5.41582187 3.73191147 9.92142293 8.0099552a34.31537813 34.31537813 0 0 1 16.24746667 16.01991147l257.13777706 257.13777813c7.05422187 3.41333333 12.74311147 9.1932448 16.11093334 16.29297707 4.2780448 4.59662187 6.18951147 7.09973333 8.00995626 10.0124448a39.59466667 39.59466667 0 0 1 5.1427552 12.42453333c0.86471147 3.73191147 1.31982187 7.1907552 1.4108448 15.01866667L876.08888853 850.46613333c0 40.59591147-4.23253333 55.296-12.15146666 70.08711147-7.91893333 14.88213333-19.56977813 26.53297813-34.4064 34.4519104-14.83662187 7.91893333-29.58222187 12.15146667-70.0871104 12.15146667H264.55608853c-40.59591147 0-55.296-4.23253333-70.0871104-12.15146667a82.69368853 82.69368853 0 0 1-34.45191146-34.4064c-7.28177813-13.6988448-11.4688-27.30666667-12.0604448-61.21244373L147.91111147 173.57937813c0-40.59591147 4.23253333-55.296 12.15146666-70.08711146 7.91893333-14.88213333 19.56977813-26.53297813 34.4064-34.45191147 13.6988448-7.28177813 27.30666667-11.4688 61.21244374-12.06044373L529.29422187 56.88888853c11.78737813 0 15.83786667 0.45511147 20.34346666 1.45635627zM523.37777813 375.46666667V125.1100448L264.6016 125.1555552c-26.66951147 0-32.31288853 1.09226667-37.9107552 4.096a14.5180448 14.5180448 0 0 0-6.41706667 6.37155627l-1.5928896 3.64088853c-1.59288853 4.55111147-2.32106667 11.2412448-2.4576 27.53422187v690.40355626l0.27306667 11.78737707c0.45511147 11.37777813 1.6384 15.3827552 3.77742293 19.34222293a14.5180448 14.5180448 0 0 0 6.3715552 6.41706667l3.18577814 1.4563552c5.18826667 1.91146667 12.9251552 2.6396448 34.77048853 2.6396448h494.7968c26.66951147 0 32.31288853-1.09226667 37.9107552-4.096a14.5180448 14.5180448 0 0 0 6.41706667-6.37155627l1.45635626-3.18577706c1.91146667-5.18826667 2.6396448-12.9251552 2.63964374-34.7704896V409.6H557.51111147a34.13333333 34.13333333 0 0 1-34.13333334-34.13333333z m11.96942187 111.6387552l91.02222187 85.42435626a34.13333333 34.13333333 0 0 1-46.6944 49.7891552l-33.54168854-31.49368853V785.06666667a34.13333333 34.13333333 0 0 1-68.26666666 0v-190.6915552l-32.768 32.768a34.13333333 34.13333333 0 0 1-44.4188448 3.3223104l-3.82293334-3.3223104a34.13333333 34.13333333 0 0 1 0-48.24177814l91.02222294-91.02222186a34.13333333 34.13333333 0 0 1 47.46808853-0.7736896z m56.2972448-299.55413334V341.33333333h153.73653333L591.6444448 187.55128853z" fill="#515151" p-id="20477"></path>
</svg>
