<svg t="1722481161044" class="icon" viewBox="0 0 1024 1024" version="1.1" xmlns="http://www.w3.org/2000/svg" p-id="5875" width="16" height="16">
    <path d="M439.91 719.225l59.535 51.435c13.05 11.295 14.535 31.095 3.375 44.28a30.96 30.96 0 0 1-43.92 3.375l-70.425-60.84a31.5 31.5 0 0 1-10.89-23.85V419.21L114.695 113.975C97.1 93.635 111.5 62 138.23 62h747.54c26.73 0 41.04 31.68 23.535 51.975l-263.25 305.28v511.335c0 17.37-13.95 31.41-31.14 31.41a31.275 31.275 0 0 1-31.14-31.41V407.51a31.5 31.5 0 0 1 7.65-20.61l226.035-262.125H206.45L432.26 386.9a31.5 31.5 0 0 1 7.65 20.61v311.715z" fill="#515151" p-id="5876"></path>
</svg>
