<svg t="1722421135714" class="icon" viewBox="0 0 1024 1024" version="1.1" xmlns="http://www.w3.org/2000/svg" p-id="6639" width="16" height="16">
    <path d="M819.2 955.73333333H204.8c-56.45653333 0-102.4-45.94346667-102.4-102.4V170.66666667c0-56.45653333 45.94346667-102.4 102.4-102.4h614.4c56.45653333 0 102.4 45.94346667 102.4 102.4v682.66666666c0 56.45653333-45.94346667 102.4-102.4 102.4zM204.8 136.53333333c-18.80746667 0-34.13333333 15.32586667-34.13333333 34.13333334v682.66666666c0 18.8416 15.32586667 34.13333333 34.13333333 34.13333334h614.4c18.8416 0 34.13333333-15.29173333 34.13333333-34.13333334V170.66666667c0-18.80746667-15.29173333-34.13333333-34.13333333-34.13333334H204.8z m444.79146667 410.5216H272.82773333c-18.8416 0-34.13333333-15.29173333-34.13333333-34.13333333s15.29173333-34.13333333 34.13333333-34.13333333h376.76373334c18.87573333 0 34.13333333 15.29173333 34.13333333 34.13333333s-15.2576 34.13333333-34.13333333 34.13333333zM749.73866667 750.42133333H272.6912c-18.8416 0-34.13333333-15.2576-34.13333333-34.13333333s15.29173333-34.13333333 34.13333333-34.13333333H749.73866667c18.87573333 0 34.13333333 15.2576 34.13333333 34.13333333s-15.2576 34.13333333-34.13333333 34.13333333zM238.62613333 291.56693333a1.6 1.6 0 1 0 102.4 0 1.6 1.6 0 1 0-102.4 0z m221.21813334 0a1.6 1.6 0 1 0 102.4 0 1.6 1.6 0 1 0-102.4 0z m222.0032 0a1.6 1.6 0 1 0 102.4 0 1.6 1.6 0 1 0-102.4 0z" fill="#515151" p-id="6640"></path>
</svg>
