<svg t="1722482061954" class="icon" viewBox="0 0 1024 1024" version="1.1" xmlns="http://www.w3.org/2000/svg" p-id="6197" width="16" height="16">
    <path d="M193.42222187 193.42222187h227.55555626V102.4H147.91111147a45.51111147 45.51111147 0 0 0-45.51111147 45.51111147v273.06666666h91.02222187V193.42222187zM147.91111147 921.6h273.06666666v-91.02222187H193.42222187v-227.55555626H102.4v273.06666666a45.51111147 45.51111147 0 0 0 45.51111147 45.51111147z m773.68888853-45.51111147v-273.06666666h-91.02222187v227.55555626h-227.55555626v91.02222187h273.06666666a45.51111147 45.51111147 0 0 0 45.51111147-45.51111147zM603.02222187 193.42222187h227.55555626v227.55555626h91.02222187V147.91111147a45.51111147 45.51111147 0 0 0-45.51111147-45.51111147h-273.06666666v91.02222187z" fill="#515151" p-id="6198"></path>
</svg>
