<svg t="1722437724236" class="icon" viewBox="0 0 1024 1024" version="1.1" xmlns="http://www.w3.org/2000/svg" p-id="21749" width="16" height="16">
    <path d="M336.29 809.12999999l0-102.87q0-7.5-4.83-12.33t-12.33-4.83l-171.42 0q-7.5 0-12.33 4.83t-4.83 12.33l0 102.87q0 7.5 4.83 12.33t12.33 4.83l171.42 0q7.5 0 12.33-4.83t4.83-12.33zM336.29 603.41999999l0-102.87q0-7.5-4.83-12.33t-12.33-4.83l-171.42 0q-7.5 0-12.33 4.83t-4.83 12.33l0 102.87q0 7.5 4.83 12.33t12.33 4.83l171.42 0q7.5 0 12.33-4.83t4.83-12.33zM610.58 809.12999999l0-102.87q0-7.5-4.83-12.33t-12.33-4.83l-171.42 0q-7.5 0-12.33 4.83t-4.83 12.33l0 102.87q0 7.5 4.83 12.33t12.33 4.83l171.42 0q7.5 0 12.33-4.83t4.83-12.33zM336.29 397.70999999l0-102.87q0-7.5-4.83-12.33t-12.33-4.83l-171.42 0q-7.5 0-12.33 4.83t-4.83 12.33l0 102.87q0 7.5 4.83 12.33t12.33 4.83l171.42 0q7.5 0 12.33-4.83t4.83-12.33zM610.58 603.41999999l0-102.87q0-7.5-4.83-12.33t-12.33-4.83l-171.42 0q-7.5 0-12.33 4.83t-4.83 12.33l0 102.87q0 7.5 4.83 12.33t12.33 4.83l171.42 0q7.5 0 12.33-4.83t4.83-12.33zM884.87 809.12999999l0-102.87q0-7.5-4.83-12.33t-12.33-4.83l-171.42 0q-7.5 0-12.33 4.83t-4.83 12.33l0 102.87q0 7.5 4.83 12.33t12.33 4.83l171.42 0q7.5 0 12.33-4.83t4.83-12.33zM610.58 397.70999999l0-102.87q0-7.5-4.83-12.33t-12.33-4.83l-171.42 0q-7.5 0-12.33 4.83t-4.83 12.33l0 102.87q0 7.5 4.83 12.33t12.33 4.83l171.42 0q7.5 0 12.33-4.83t4.83-12.33zM884.87 603.41999999l0-102.87q0-7.5-4.83-12.33t-12.33-4.83l-171.42 0q-7.5 0-12.33 4.83t-4.83 12.33l0 102.87q0 7.5 4.83 12.33t12.33 4.83l171.42 0q7.5 0 12.33-4.83t4.83-12.33zM884.87 397.70999999l0-102.87q0-7.5-4.83-12.33t-12.33-4.83l-171.42 0q-7.5 0-12.33 4.83t-4.83 12.33l0 102.87q0 7.5 4.83 12.33t12.33 4.83l171.42 0q7.5 0 12.33-4.83t4.83-12.33zM953.42 226.28999999l0 582.87q0 35.37-25.17 60.54t-60.54 25.17l-720 0q-35.37 0-60.54-25.17t-25.17-60.54l0-582.87q0-35.37 25.17-60.54t60.54-25.17l720 0q35.37 0 60.54 25.17t25.17 60.54z" fill="#515151" p-id="21750"></path>
</svg>
