<svg t="1722409998692" class="icon" viewBox="0 0 1024 1024" version="1.1" xmlns="http://www.w3.org/2000/svg" p-id="14083" width="16" height="16">
    <path d="M817.90625 148.34375c15.46875 0 28.125 12.65625 28.125 28.125v191.34375c0 15.46875-12.65625 28.125-28.125 28.125h-609.375c-15.46875 0-28.125-12.65625-28.125-28.125V176.46875c0-15.46875 12.65625-28.125 28.125-28.125h609.375m0-56.25h-609.375c-46.59375 0-84.375 37.78125-84.375 84.375v191.34375c0 46.59375 37.78125 84.375 84.375 84.375h609.375c46.59375 0 84.375-37.78125 84.375-84.375V176.46875c0-46.59375-37.78125-84.375-84.375-84.375zM892.90625 539.75h-765c-15.5625 0-28.125-12.5625-28.125-28.125s12.5625-28.125 28.125-28.125h765c15.5625 0 28.125 12.5625 28.125 28.125s-12.5625 28.125-28.125 28.125z" fill="#515151" p-id="14084"></path>
    <path d="M932 475.15625V553.25c0 15.5625-12.5625 28.125-28.125 28.125s-28.125-12.5625-28.125-28.125v-78.1875c0-15.5625 12.5625-28.125 28.125-28.125 15.5625 0.09375 28.125 12.65625 28.125 28.21875zM148.25 475.15625V553.25c0 15.5625-12.5625 28.125-28.125 28.125s-28.125-12.5625-28.125-28.125v-78.1875c0-15.5625 12.5625-28.125 28.125-28.125 15.5625 0.09375 28.125 12.65625 28.125 28.21875zM817.625 628.0625c15.46875 0 28.125 12.65625 28.125 28.125v191.34375c0 15.46875-12.65625 28.125-28.125 28.125H208.25c-15.46875 0-28.125-12.65625-28.125-28.125V656.1875c0-15.46875 12.65625-28.125 28.125-28.125h609.375m0-56.25H208.25c-46.59375 0-84.375 37.78125-84.375 84.375v191.34375c0 46.59375 37.78125 84.375 84.375 84.375h609.375c46.59375 0 84.375-37.78125 84.375-84.375V656.1875c0-46.6875-37.78125-84.375-84.375-84.375z" fill="#515151" p-id="14085"></path>
</svg>
