<svg t="1722418242310" class="icon" viewBox="0 0 1024 1024" version="1.1" xmlns="http://www.w3.org/2000/svg" p-id="14560" width="16" height="16">
    <path d="M512 948.36363594a436.36363594 436.36363594 0 1 1 436.36363594-436.36363594 436.36363594 436.36363594 0 0 1-436.36363594 436.36363594z m0-807.27272719a370.90909125 370.90909125 0 1 0 370.90909125 370.90909125A370.90909125 370.90909125 0 0 0 512 141.09090875z" fill="#515151" p-id="14561"></path><path d="M630.90909125 731.92727281a47.12727281 47.12727281 0 0 1-21.8181825-5.45454562L512 675.85454562l-96.87272719 50.61818157a47.56363594 47.56363594 0 0 1-68.94545437-50.18181844l18.54545437-106.69090875-78.32727281-75.70909125a47.34545438 47.34545438 0 0 1 26.4-80.94545437l109.09090875-15.70909032 48.43636406-97.09090969a47.56363594 47.56363594 0 0 1 85.09090875 0l48.43636407 97.09090969 109.09090875 15.70909031a47.34545438 47.34545438 0 0 1 26.4 80.94545438l-78.32727282 75.70909125 18.54545438 106.69090875a47.56363594 47.56363594 0 0 1-46.90909031 55.63636406zM359.27272719 472.50909125l58.69090875 56.72727281a47.78181844 47.78181844 0 0 1 13.74545531 42.10909031l-13.96363688 80.29090969L490.18181844 613.45454562a47.12727281 47.12727281 0 0 1 43.63636312 0l73.09090969 37.96363594-13.96363688-80.29090875a47.78181844 47.78181844 0 0 1 13.74545438-42.10909125L664.72727281 472.50909125l-81.16363687-11.78181844a47.34545438 47.34545438 0 0 1-35.7818175-25.74545437L512 361.45454563l-36.65454563 73.52727281a47.34545438 47.34545438 0 0 1-35.56363593 25.74545437z m137.67272719-143.34545531z" fill="#515151" p-id="14562"></path>
</svg>
