<svg t="1722437949755" class="icon" viewBox="0 0 1098 1024" version="1.1" xmlns="http://www.w3.org/2000/svg" p-id="21910" width="16" height="16">
    <path d="M383.440625 351.29375q0 40.190625-28.125 68.315625t-68.315625 28.125-68.315625-28.125-28.125-68.315625 28.125-68.315625 68.315625-28.125 68.315625 28.125 28.125 68.315625zM897.70625 544.146875l0 225-707.146875 0 0-96.440625 160.70625-160.70625 80.353125 80.353125 257.146875-257.146875zM945.940625 190.559375l-803.559375 0q-6.525 0-11.30625 4.78125t-4.78125 11.30625l0 610.70625q0 6.525 4.78125 11.30625t11.30625 4.78125l803.559375 0q6.525 0 11.30625-4.78125t4.78125-11.30625l0-610.70625q0-6.525-4.78125-11.30625t-11.30625-4.78125zM1026.29375 206.646875l0 610.70625q0 33.159375-23.596875 56.75625t-56.75625 23.596875l-803.559375 0q-33.159375 0-56.75625-23.596875t-23.596875-56.75625l0-610.70625q0-33.159375 23.596875-56.75625t56.75625-23.596875l803.559375 0q33.159375 0 56.75625 23.596875t23.596875 56.75625z" fill="#515151" p-id="21911"></path>
</svg>
