<svg t="1722485231408" class="icon" viewBox="0 0 1024 1024" version="1.1" xmlns="http://www.w3.org/2000/svg" p-id="6029" width="16" height="16">
    <path d="M682.66666667 56.88888853A102.4 102.4 0 0 1 785.06666667 159.28888853v705.42222294A102.4 102.4 0 0 1 682.66666667 967.11111147h-341.33333334A102.4 102.4 0 0 1 238.93333333 864.71111147V159.28888853A102.4 102.4 0 0 1 341.33333333 56.88888853h341.33333334z m0 68.26666667h-341.33333334a34.13333333 34.13333333 0 0 0-34.13333333 34.13333333v705.42222294c0 18.8416 15.29173333 34.13333333 34.13333333 34.13333333h341.33333334a34.13333333 34.13333333 0 0 0 34.13333333-34.13333333V159.28888853a34.13333333 34.13333333 0 0 0-34.13333333-34.13333333z m-44.37333334 453.47271147a34.13333333 34.13333333 0 0 1 3.73191147 44.4188448l-3.2312896 3.86844373-102.4 104.49351147a34.13333333 34.13333333 0 0 1-44.91946667 3.36782186l-3.82293333-3.36782186-102.53653333-104.49351147a34.13333333 34.13333333 0 0 1 44.91946666-51.15448853l3.77742294 3.36782186L512 658.77333333l78.0060448-79.6444448a34.13333333 34.13333333 0 0 1 48.28728853-0.4551104z m-101.94488853-283.94382187l102.4 104.4935104a34.13333333 34.13333333 0 1 1-48.6968896 47.78666667L512 367.27466667l-78.18808853 79.6444448a34.13333333 34.13333333 0 0 1-48.6968896-47.78666667l102.53653333-104.49351147a34.13333333 34.13333333 0 0 1 48.6968896 0z" fill="#515151" p-id="6030"></path>
</svg>
