<svg t="1722421355148" class="icon" viewBox="0 0 1024 1024" version="1.1" xmlns="http://www.w3.org/2000/svg" p-id="6957" width="16" height="16">
    <path d="M905.75 287v450H118.25V287h787.5zM118.25 230.75a56.25 56.25 0 0 0-56.25 56.25v450a56.25 56.25 0 0 0 56.25 56.25h787.5a56.25 56.25 0 0 0 56.25-56.25V287a56.25 56.25 0 0 0-56.25-56.25H118.25z" fill="#515151" p-id="6958"></path>
    <path d="M283.85 376.8875a175.5 175.5 0 0 1-35.4375 27.5625 167.0625 167.0625 0 0 1-40.1625 16.5375v45.675c25.9875-7.48125 47.25-18.9 64.18125-34.25625v225.61875h46.06875V376.8875h-34.65zM476.45 371.375c-30.31875 0-54.73125 10.2375-73.2375 30.7125-18.1125 19.29375-27.16875 44.49375-27.5625 75.99375h46.125c0.73125-22.05 5.45625-38.98125 14.11875-50.00625 8.6625-11.8125 21.65625-17.71875 38.98125-17.71875 16.14375 0 28.35 3.54375 36.61875 11.025 7.875 7.48125 12.20625 18.9 12.20625 34.25625 0 15.75-6.3 30.7125-18.50625 44.49375-7.875 8.26875-20.475 18.9-38.5875 31.5-32.625 22.44375-54.3375 39.76875-64.575 51.58125a108.45 108.45 0 0 0-27.95625 74.8125h196.0875v-40.55625H431.5625c6.3-14.175 23.625-30.7125 52.36875-49.6125 27.5625-18.50625 47.25-33.46875 58.275-45.28125 18.1125-20.08125 27.5625-42.13125 27.5625-66.54375 0-25.2-8.6625-45.28125-25.9875-61.03125-17.71875-15.75-40.1625-23.625-67.33125-23.625zM710.95625 371.375c-27.5625 0-50.4 7.48125-68.0625 23.23125-18.95625 15.75-29.19375 37.8-31.5 66.15h45.225c1.575-16.93125 7.0875-29.53125 16.5375-37.8 9.05625-8.26875 21.65625-12.20625 38.25-12.20625 16.0875 0 28.29375 3.54375 36.5625 10.63125 7.48125 7.0875 11.41875 17.325 11.41875 31.10625 0 13.78125-4.33125 24.4125-12.6 31.5-8.6625 7.0875-21.2625 10.63125-37.8 10.63125h-19.6875v34.65h19.6875c18.1125 0 31.89375 3.54375 41.34375 11.41875 9.45 7.48125 14.625 19.29375 14.625 35.4375a45.45 45.45 0 0 1-13.8375 33.46875c-10.2375 9.84375-24.4125 14.9625-42.13125 14.9625-16.14375 0-29.1375-4.725-38.98125-13.78125-11.025-9.84375-16.5375-24.01875-17.325-42.13125h-46.85625c2.3625 31.5 13.3875 55.9125 33.075 72.45 17.71875 14.9625 41.34375 22.44375 70.48125 22.44375 30.7125 0 55.51875-8.6625 74.41875-25.59375 18.1125-16.5375 27.16875-37.8 27.16875-63.7875 0-16.5375-4.725-30.31875-14.175-40.95-8.6625-10.2375-21.65625-17.71875-38.19375-22.8375 31.10625-10.2375 46.85625-30.7125 46.85625-61.425 0-24.4125-8.6625-43.3125-25.59375-57.09375-17.325-13.78125-40.5-20.475-68.90625-20.475z" fill="#515151" p-id="6959"></path>
</svg>
