<svg t="1722437423257" class="icon" viewBox="0 0 1024 1024" version="1.1" xmlns="http://www.w3.org/2000/svg" p-id="21431" width="16" height="16">
    <path d="M343.25 211.625C343.25 294.875 512 512 512 512s168.75-217.125 168.75-300.375C680.1875 129.5 605.375 62 512 62S343.25 129.5 343.25 211.625zM455.75 230.75c0-30.9375 25.3125-56.25 56.25-56.25s56.25 25.3125 56.25 56.25-25.3125 56.25-56.25 56.25-56.25-25.3125-56.25-56.25zM652.625 624.5H512v281.25h56.25v-225h56.25v56.25H568.25v56.25h112.5v-168.75h-28.125zM174.5 568.25h675c30.9375 0 56.25 25.3125 56.25 56.25v281.25c0 30.9375-25.3125 56.25-56.25 56.25H174.5c-30.9375 0-56.25-25.3125-56.25-56.25v-281.25c0-30.9375 25.3125-56.25 56.25-56.25z m225 56.25v281.25h56.25v-281.25H399.5z" fill="#515151" p-id="21432"></path>
</svg>
