<svg t="1722419529735" class="icon" viewBox="0 0 1024 1024" version="1.1" xmlns="http://www.w3.org/2000/svg" p-id="23419" width="16" height="16">
    <path d="M896 85.333333H128a42.666667 42.666667 0 0 0-42.666667 42.666667v768a42.666667 42.666667 0 0 0 42.666667 42.666667h768a42.666667 42.666667 0 0 0 42.666667-42.666667V128a42.666667 42.666667 0 0 0-42.666667-42.666667zM469.333333 853.333333H170.666667v-170.666666h298.666666z m0-256H170.666667v-170.666666h298.666666z m384 256h-298.666666v-170.666666h298.666666z m0-256h-298.666666v-170.666666h298.666666z m0-256H170.666667V170.666667h682.666666z" fill="#515151" p-id="23420"></path>
</svg>
