<svg t="1722482297895" class="icon" viewBox="0 0 1024 1024" version="1.1" xmlns="http://www.w3.org/2000/svg" p-id="6826" width="16" height="16">
    <path d="M498.81640625 90.125a39.55078125 39.55078125 0 0 1 39.55078125 39.55078125V248.328125h191.63671875c21.83203125 0 42.92578125 7.75195313 59.58984375 21.83203125l109.16015625 92.28515625a92.28515625 92.28515625 0 0 1 0 140.90625l-109.16015625 92.28515625a92.28515625 92.28515625 0 0 1-59.58984375 21.83203125H538.3671875v276.85546875a39.55078125 39.55078125 0 0 1-79.1015625 0V617.46875H235.14453125A92.28515625 92.28515625 0 0 1 142.859375 525.18359375v-184.5703125C142.859375 289.671875 184.203125 248.328125 235.14453125 248.328125H459.265625V129.67578125A39.55078125 39.55078125 0 0 1 498.81640625 90.125z m231.1875 448.2421875a13.18359375 13.18359375 0 0 0 8.49023438-3.1640625l109.16015624-92.28515625a13.078125 13.078125 0 0 0 0-20.0390625l-109.16015625-92.28515625a13.18359375 13.18359375 0 0 0-8.49023437-3.1640625H235.14453125a13.18359375 13.18359375 0 0 0-13.18359375 13.18359375v184.5703125c0 7.27734375 5.90625 13.18359375 13.18359375 13.18359375h494.859375z" fill="#515151" p-id="6827"></path>
</svg>
