<svg t="1722486872145" class="icon" viewBox="0 0 1024 1024" version="1.1" xmlns="http://www.w3.org/2000/svg" p-id="6380" width="16" height="16">
    <path d="M156.12470703 765.6875V264.57470703c0-18.45 15.00029297-33.44941406 33.48808594-33.44941406h644.77441406c18.48779297 0 33.48808594 14.99941406 33.48808594 33.44941406V765.6875c0 18.48779297-15.00029297 33.45029297-33.48808594 33.45029297h-644.77441406a33.45029297 33.45029297 0 0 1-33.45029297-33.45029297m787.08691406-5.625V263.15c0-54.37529297-36.74970703-107.47529297-115.98662109-107.47529297H179.63720703c-65.66220703 0.03779297-98.8875 49.98779297-98.8875 107.4375v504.86308594c0 60.89941406 41.81308594 106.57441406 106.80029297 106.57441406h639.71191406c79.875 0 115.98837891-49.3875 115.98837891-114.525" fill="#515151" p-id="6381"></path>
    <path d="M763.02441406 266.975a41.47558594 41.47558594 0 1 1 0 82.9125 41.47558594 41.47558594 0 0 1 0-82.9125z m32.43779297 116.62470703c4.53779297 0 8.4375 3.825 8.4375 8.4375v50.47558594a8.4375 8.4375 0 0 1-8.4375 8.4375h-571.64941406a8.4375 8.4375 0 0 1-8.36279297-8.4375v-50.47558594c0-4.6125 3.75029297-8.4375 8.36279297-8.4375H795.5z m-312.75 134.6625c4.53779297 0 8.36279297 3.78808594 8.36279297 8.4375v50.47558594a8.43486327 8.43486327 0 0 1-8.36279297 8.4375H223.775a8.4375 8.4375 0 0 1-8.39970703-8.4375v-50.47558594c0-4.64941406 3.78720703-8.4375 8.39970703-8.4375H482.75z m313.50058594 106.83808594c4.53691406 0 8.28720703 3.7125 8.28720703 8.325V717.3125a8.325 8.325 0 0 1-8.25029297 8.36279297H644.48720703a8.39970703 8.39970703 0 0 1-8.325-8.36279297v-83.925c0-4.6125 3.75029297-8.36279297 8.325-8.36279297h151.72558594v0.07558594z" fill="#515151" p-id="6382"></path>
</svg>
