<svg t="1722483396456" class="icon" viewBox="0 0 1024 1024" version="1.1" xmlns="http://www.w3.org/2000/svg" p-id="8344" width="16" height="16">
    <path d="M373.42186667 76.2304c-67.69493333-1.6352-135.4944-1.66506667-203.18613334 0.05973333-57.472 1.46346667-91.6768 35.50186667-93.36106666 93.31306667-1.91786667 65.85066667-1.73546667 131.83146667-0.112 197.696 1.49866667 60.8448 35.9104 94.78613333 95.98613333 97.12533333 32.90346667 1.28 65.89653333 0.22826667 98.8512 0.22826667v0.0896c31.12213333 0 62.24426667 0.0064 93.36746667-0.01066667 3.65866667 0 7.33333333 0.04586667 10.97813333-0.2304 52.18986667-3.96373333 86.89493333-33.7088 89.39093333-86.05546666 3.39306667-71.21813333 3.36-142.81173333 0.36266667-214.05866667-2.34026667-55.65866667-36.55786667-86.81066667-92.27733333-88.1568z m0.77546666 238.01066667c-1.97653333 42.27093333-14.67733333 56.95893333-54.9952 59.088-32.77333333 1.73013333-65.81653333 1.88266667-98.55893333-0.16-34.368-2.144-49.37813333-17.00373333-51.552-51.7888-2.16-34.55146667-2.24853333-69.46773333 0.0896-103.99786667 2.36693333-34.94186667 17.19573333-48.3072 52.49493333-50.064 30.96853333-1.5424 62.09813333-1.20533333 93.10933334-0.2176 45.2864 1.4432 57.47626667 14.0672 59.44213333 59.49866667 0.63146667 14.58133333 0.09813333 29.2128 0.09813333 43.82186666-0.02133333 14.608 0.55253333 29.24266667-0.128 43.81973334zM466.00853333 667.1264c-5.2416-64.10666667-44.66453333-105.55413333-108.9568-109.61386667-56.52373333-3.56906667-113.6352-3.64053333-170.1504-0.01386666-66.07466667 4.24213333-107.6352 48.89813333-110.05653333 114.528-1.95626667 53.0304-1.9264 106.24533333 0 159.27893333 2.3808 65.62986667 44.93866667 111.60533333 109.52533333 115.33653333 56.5696 3.2672 113.6064 3.08693333 170.20266667 0.064 62.9312-3.36 103.88266667-45.77386667 109.36533333-109.40266666 2.34666667-27.2544 0.39146667-54.88106667 0.39146667-82.33706667l0.08533333-0.00106667c0-29.29066667 1.97333333-58.7424-0.4064-87.83893333zM374.0544 800.864c-2.33706667 37.0752-13.30453333 50.79786667-48.67093333 53.1168-36.288 2.37866667-72.8992 1.37706667-109.29706667-0.0256-27.31946667-1.0528-45.03466667-16.80853333-46.3296-44.41386667-1.7888-38.1696-2.67626667-76.64 0.09386667-114.68693333 2.304-31.64373333 17.04533333-43.18613333 51.008-44.71893333 32.752-1.4784 65.6608-1.41226667 98.4256-0.12586667 39.59466667 1.55306667 52.13866667 14.08426667 54.72853333 52.42986667 1.10186667 16.33386667 0.18453333 32.8032 0.18453333 49.21066666 0.0288 16.40746667 0.88746667 32.87146667-0.14293333 49.21386667zM647.01333333 463.8048c71.30666667 2.32853333 142.80853333 2.3808 214.10986667-0.03093333 51.31413333-1.7344 83.73546667-36.60266667 86.34666667-88.42453334 1.74933333-34.69013333 0.33493333-69.5392 0.33493333-104.31786666h0.192c0-31.11786667 0.00213333-62.23466667-0.0064-93.35253334 0-3.66186667 0.0992-7.33226667-0.128-10.98133333-3.4528-55.2288-34.83733333-88.74986667-90.09066667-90.29333333-69.49866667-1.9456-139.136-1.89866667-208.64 0.02773333-52.53866667 1.45386667-87.1648 34.10773333-88.93866666 85.3856-2.46613333 71.2992-2.3328 142.79466667-0.19306667 214.11413333 1.54453333 51.52 35.71733333 86.1984 87.01333333 87.872zM756.48 166.832c99.39626667 0.016 100.7488 1.3792 100.7616 101.568 0.01386667 103.2864-2.11946667 105.46453333-103.2416 105.4592-100.68586667-0.0032-101.99466667-3.25226667-104.352-105.2672-2.56-110.7232 21.93493333-103.59893333 106.832-101.76zM947.81013333 657.35146667c-1.57866667-64.84266667-33.03253333-97.4944-98.17493333-100.9728-31.11466667-1.66186667-62.38933333-0.28693333-93.59253333-0.28693334v0.08746667c-33.03893333 0-66.07466667-0.02453333-99.11253334 0.03626667-3.65866667 0.00533333-7.34186667 0.32213333-10.9728 0.80426666-52.56746667 6.9696-84.5856 38.26346667-86.05226666 90.29013334a3709.4496 3709.4496 0 0 0 0.02133333 209.2096c1.4528 51.47093333 34.77866667 86.14186667 85.968 90.09066666 38.31573333 2.95466667 77.1104 2.30826667 115.54133333 0.33386667 30.7424-1.57866667 51.1104-23.58826667 49.68853334-48.15573333-1.33013333-22.99306667-19.80693333-40.0384-49.24373334-42.75413334-20.04693333-1.84853333-40.47146667 0.32-60.49493333-1.6512-35.2352-3.47093333-48.8192-17.05066667-50.672-52.72213333a957.43466667 957.43466667 0 0 1 0.0128-99.07626667c1.87733333-36.22613333 15.50613333-50.53653333 50.17813333-52.29013333 34.784-1.76 69.78666667-1.71093333 104.5792-0.064 35.53066667 1.68 48.58026667 15.40693333 51.27466667 51.15413333 1.51466667 20.08746667-0.72533333 40.48213333 1.13066667 60.51626667 2.7488 29.67466667 19.4016 45.3632 44.9632 45.4016 25.8784 0.03946667 42.76906667-15.248 44.4576-45.36213333 1.94986667-34.768 1.3504-69.73866667 0.50133333-104.5888z" fill="#515151" p-id="8345"></path>
</svg>
