<svg t="1722486956772" class="icon" viewBox="0 0 1024 1024" version="1.1" xmlns="http://www.w3.org/2000/svg" p-id="6538" width="16" height="16">
    <path d="M194.5 80.84374999a37.40625001 37.40625001 0 1 0 0 74.81250002h618.75c20.64375001 0 37.40625001 16.7625 37.40625001 37.40624999V905.75a37.40625001 37.40625001 0 0 0 74.81249998 0V193.0625A112.21875001 112.21875001 0 0 0 813.25 80.84374999H194.5z" fill="#515151" p-id="6539"></path>
    <path d="M475.75 401.75a18.5625 18.5625 0 0 0-32.0625-15.1875L262.7875 582.14375001a18.5625 18.5625 0 0 0 13.6125 31.16249998h161.2125c11.25 0 19.9125 9.95625001 18.39375001 21.09375001L442 734.75a18.5625 18.5625 0 0 0 32.00625001 15.1875l181.01249998-195.525a18.5625 18.5625 0 0 0-13.61249998-31.1625H480.19374999a18.5625 18.5625 0 0 1-18.39374999-21.09375001L475.75 401.75z" fill="#515151" p-id="6540"></path>
    <path d="M119.51874999 315.125a112.5 112.5 0 0 1 112.50000002-112.5h449.99999998a112.5 112.5 0 0 1 112.50000002 112.5v506.25a112.5 112.5 0 0 1-112.5 112.5h-450.00000002a112.5 112.5 0 0 1-112.49999998-112.5v-506.25z m112.50000002-37.51875001A37.51875001 37.51875001 0 0 0 194.5 315.125v506.25c0 20.7 16.7625 37.4625 37.51875001 37.4625h449.99999998a37.51875001 37.51875001 0 0 0 37.46250002-37.4625v-506.25a37.51875001 37.51875001 0 0 0-37.4625-37.51875001h-450.00000002z" fill="#515151" p-id="6541"></path>
</svg>
