<svg t="1722487112569" class="icon" viewBox="0 0 1024 1024" version="1.1" xmlns="http://www.w3.org/2000/svg" p-id="6697" width="16" height="16">
    <path d="M896 832H128c-17.6 0-32 14.4-32 32s14.4 32 32 32h768c17.6 0 32-14.4 32-32s-14.4-32-32-32zM896 656H128c-17.6 0-32 14.4-32 32s14.4 32 32 32h768c17.6 0 32-14.4 32-32s-14.4-32-32-32zM896 480H640c-17.6 0-32 14.4-32 32s14.4 32 32 32h256c17.6 0 32-14.4 32-32s-14.4-32-32-32zM640 192h256c17.6 0 32-14.4 32-32s-14.4-32-32-32H640c-17.6 0-32 14.4-32 32s14.4 32 32 32zM896 304H640c-17.6 0-32 14.4-32 32s14.4 32 32 32h256c17.6 0 32-14.4 32-32s-14.4-32-32-32zM179.2 572.8c16 6.4 35.2-1.6 41.6-17.6l59.2-140.8c3.2 0 4.8 1.6 8 1.6h128c3.2 0 4.8 0 8-1.6l59.2 140.8c4.8 12.8 17.6 19.2 28.8 19.2 4.8 0 8 0 12.8-3.2 16-6.4 24-25.6 17.6-41.6l-160-384C376 136 364.8 128 352 128s-24 8-28.8 19.2l-160 384c-8 17.6 0 35.2 16 41.6zM352 243.2l44.8 108.8h-91.2l46.4-108.8z" fill="#515151" p-id="6698"></path>
</svg>
