<svg t="1722483727112" class="icon" viewBox="0 0 1024 1024" version="1.1" xmlns="http://www.w3.org/2000/svg" p-id="8984" width="16" height="16">
    <path d="M902 92c18 0 30 12 30 30v780c0 18-12 30-30 30H122c-18 0-30-12-30-30V122c0-18 12-30 30-30h780z m-30 300H152v480h720V392z m-468 78v261h57V782H275v-51h66v-198H287v-39c30-6 54-15 72-27h45z m219 42l126 117-126 123-42-42L662 632l-81-72 42-48zM872 152H152v180h720V152zM242 212c18 0 30 12 30 30s-12 30-30 30-30-12-30-30 12-30 30-30z m120 0c18 0 30 12 30 30s-12 30-30 30-30-12-30-30 12-30 30-30z m120 0c18 0 30 12 30 30s-12 30-30 30-30-12-30-30 12-30 30-30z" fill="#515151" p-id="8985"></path>
</svg>
