<svg t="1722420800969" class="icon" viewBox="0 0 1024 1024" version="1.1" xmlns="http://www.w3.org/2000/svg" p-id="6166" width="16" height="16">
    <path d="M32 32h960v960H32z" fill="#FFFFFF" p-id="6167"></path>
    <path d="M924.5 183.875a7.5 7.5 0 0 1 7.5 7.5v592.5a7.5 7.5 0 0 1-7.5 7.5H610.0278125a3.75 3.75 0 0 0-2.6653125 1.1128125l-92.69625 93.6928125a3.75 3.75 0 0 1-5.1534375 0.16875l-0.178125-0.16875-92.6971875-93.69375a3.75 3.75 0 0 0-2.6653125-1.111875H99.5a7.5 7.5 0 0 1-7.5-7.5V191.375a7.5 7.5 0 0 1 7.5-7.5h825z m-60 67.5H159.5v472.5h284.2078125L512 792.9003125 580.2921875 723.875H864.5V251.375zM384.5 548.5625a7.5 7.5 0 0 1 7.5 7.5v67.5a7.5 7.5 0 0 1-7.5 7.5H249.5a7.5 7.5 0 0 1-7.5-7.5v-67.5a7.5 7.5 0 0 1 7.5-7.5h135z m222.1875-181.875a7.5 7.5 0 0 1 7.5 7.5v67.5a7.5 7.5 0 0 1-7.5 7.5H249.5a7.5 7.5 0 0 1-7.5-7.5v-67.5a7.5 7.5 0 0 1 7.5-7.5h357.1875z" fill="#1D1F24" p-id="6168"></path>
</svg>
