<svg t="1722474889264" class="icon" viewBox="0 0 1024 1024" version="1.1" xmlns="http://www.w3.org/2000/svg" p-id="23520" width="16" height="16">
    <path d="M797 662a135 135 0 1 1 0 270h-570a135 135 0 1 1 0-270h570z m0 60h-570a75 75 0 0 0-4.92 149.85L227 872h570a75 75 0 0 0 4.92-149.85L797 722z" fill="#515151" p-id="23521"></path>
    <path d="M92 662m135 0l210 0q135 0 135 135l0 0q0 135-135 135l-210 0q-135 0-135-135l0 0q0-135 135-135Z" fill="#515151" p-id="23522"></path>
    <path d="M709.80110844 62.55402031m22.98133312 19.28362782l0 0q22.98133312 19.28362875 3.69770531 42.26496187l-404.95619437 482.60799938q-19.28362875 22.98133312-42.26496187 3.69770437l0 0q-22.98133312-19.28362875-3.69770438-42.26496094l404.95619344-482.60799937q19.28362875-22.98133312 42.26496187-3.69770531Z" fill="#515151" p-id="23523"></path>
    <path d="M287 92a135 135 0 1 1 0 270 135 135 0 0 1 0-270z m0 60a75 75 0 1 0 0 150 75 75 0 0 0 0-150zM707 332a135 135 0 1 1 0 270 135 135 0 0 1 0-270z m0 60a75 75 0 1 0 0 150 75 75 0 0 0 0-150z" fill="#515151" p-id="23524"></path>
</svg>
