<svg t="1722438076942" class="icon" viewBox="0 0 1024 1024" version="1.1" xmlns="http://www.w3.org/2000/svg" p-id="22071" width="16" height="16">
    <path d="M227.0921696 682.0460608h113.6950304v113.6950304h-113.6950304v-113.6950304z m-136.43403627-204.70070293h386.68722454V90.65813333H90.65813333v386.68722454z m68.26666667-318.42055787h250.22836373v250.22836373H158.94962453V158.94962453zM90.65813333 932.27442453h386.68722454V545.61202453H90.65813333V932.27442453z m68.26666667-318.39573333h250.22836373V864.00775787H158.94962453V613.8786912z m68.1673696-386.76169707h113.6950304v113.6950304h-113.6950304v-113.6950304z m386.76169707 580.01842454h-68.26666667v125.11418133h250.25318827v-68.26666667h-181.96169707v-56.84751466zM864.00775787 545.61202453h68.26666666v68.26666667h-68.26666666v-68.26666667z m-181.96169707-318.4950304h113.6950304v113.6950304h-113.6950304v-113.6950304z m-136.43403627-136.4588608v386.68722454H932.27442453V90.65813333H545.61202453zM864.00775787 409.0786912H613.8786912V158.9248H864.00775787v250.1538912z m-250.12906667 261.64751467v-56.84751467h181.96169707v-68.26666667h-250.22836374v193.25672747h181.96169707v-68.14254613h-113.6950304z m113.6950304 68.14254613h68.26666667v68.26666667h-68.26666667v-68.26666667z m136.43403627 79.6858176h68.26666666v113.6950304h-68.26666666v-113.6950304z m-68.1673696-147.82836373h136.43403626v68.26666666h-136.43403626v-68.26666666z" fill="#515151" p-id="22072"></path>
</svg>
