<svg t="1722436117691" class="icon" viewBox="0 0 1024 1024" version="1.1" xmlns="http://www.w3.org/2000/svg" p-id="19841" width="16" height="16">
    <path d="M281.6 349.867c89.6 0 162.133 68.266 162.133 162.133S371.2 674.133 281.6 674.133 119.467 601.6 119.467 512 192 349.867 281.6 349.867m0-59.734c-119.467 0-221.867 102.4-221.867 221.867s102.4 221.867 221.867 221.867S507.733 631.467 507.733 512 401.067 290.133 281.6 290.133z m460.8 59.734c89.6 0 162.133 68.266 162.133 162.133S836.267 674.133 742.4 674.133 580.267 601.6 580.267 512 652.8 349.867 742.4 349.867m0-59.734c-119.467 0-221.867 102.4-221.867 221.867s102.4 221.867 221.867 221.867S964.267 631.467 964.267 512 866.133 290.133 742.4 290.133zM375.467 512c0 51.2-46.934 93.867-98.134 93.867S183.467 563.2 183.467 512s46.933-93.867 93.866-93.867S375.467 460.8 375.467 512z" fill="#515151" p-id="19842"></path>
</svg>
