<svg t="1722436870672" class="icon" viewBox="0 0 1024 1024" version="1.1" xmlns="http://www.w3.org/2000/svg" p-id="20797" width="16" height="16">
    <path d="M897.71428583 222.71428583a64.28571415 64.28571415 0 0 1 64.28571417 64.28571417v450a64.28571415 64.28571415 0 0 1-64.28571415 64.28571415H126.28571417a64.28571415 64.28571415 0 0 1-64.28571417-64.28571415V287a64.28571415 64.28571415 0 0 1 64.28571415-64.28571415h771.42857168z m2e-8 64.28571417H126.28571417v450h771.42857168V287z" fill="#515151" p-id="20798"></path>
    <path d="M338.42857168 679.14285753A180 180 0 1 1 338.42857168 319.14285753a180 180 0 0 1 0 360z m0-308.57142921a128.57142832 128.57142832 0 1 0 0 257.14285753 128.57142832 128.57142832 0 0 0 0-257.14285753z" fill="#515151" p-id="20799"></path>
    <path d="M453.01785751 582.13571417l84.31071417 84.27857168a22.33928583 22.33928583 0 1 1-31.62857168 31.62857168l-84.31071417-84.375a22.33928583 22.33928583 0 0 1 31.62857168-31.53214336z" fill="#515151" p-id="20800"></path>
</svg>
