<svg t="1722436314673" class="icon" viewBox="0 0 1024 1024" version="1.1" xmlns="http://www.w3.org/2000/svg" p-id="20152" width="16" height="16">
    <path d="M662.00000029 549.50000029H99.50000029a37.50000029 37.50000029 0 0 1 0-75.00000058h562.5a37.50000029 37.50000029 0 0 1 0 75.00000058z" fill="#515151" p-id="20153"></path>
    <path d="M737 662.00000029a112.5 112.5 0 0 1-112.5-112.5v-75.00000058a112.5 112.5 0 0 1 225 0v75.00000058a112.5 112.5 0 0 1-112.5 112.5z m0-225a37.50000029 37.50000029 0 0 0-37.50000029 37.49999942v75.00000058a37.50000029 37.50000029 0 0 0 75.00000058 0v-75.00000058a37.50000029 37.50000029 0 0 0-37.50000029-37.49999942z" fill="#515151" p-id="20154"></path>
    <path d="M924.49999971 549.50000029h-112.5a37.50000029 37.50000029 0 0 1 0-75.00000058h112.5a37.50000029 37.50000029 0 0 1 0 75.00000058z" fill="#515151" p-id="20155"></path>
</svg>
