<svg t="1722484117584" class="icon" viewBox="0 0 1024 1024" version="1.1" xmlns="http://www.w3.org/2000/svg" p-id="6130" width="16" height="16">
    <path d="M122.368 165.888h778.24c-9.216 0-16.384-7.168-16.384-16.384v713.728c0-9.216 7.168-16.384 16.384-16.384h-778.24c9.216 0 16.384 7.168 16.384 16.384V150.016c0 8.192-6.656 15.872-16.384 15.872z m-32.768 684.544c0 26.112 20.992 47.104 47.104 47.104h750.08c26.112 0 47.104-20.992 47.104-47.104V162.304c0-26.112-20.992-47.104-47.104-47.104H136.704c-26.112 0-47.104 20.992-47.104 47.104v688.128z" fill="#515151" p-id="6131"></path>
    <path d="M524.288 376.832H281.088c-20.992 0-37.888-16.896-37.888-37.888V247.296c0-20.992 16.896-37.888 37.888-37.888h243.712c20.992 0 37.888 16.896 37.888 37.888v91.648c0 20.992-17.408 37.888-38.4 37.888z m-230.4-51.2h217.088V260.096H293.888v65.536zM524.288 790.528H281.088c-20.992 0-37.888-16.896-37.888-37.888v-92.16c0-20.992 16.896-37.888 37.888-37.888h243.712c20.992 0 37.888 16.896 37.888 37.888v91.648c0 20.992-17.408 38.4-38.4 38.4z m-230.4-51.2h217.088v-65.536H293.888v65.536zM771.072 590.336h-257.024c-20.992 0-37.888-16.896-37.888-37.888v-92.16c0-20.992 16.896-37.888 37.888-37.888h257.024c20.992 0 37.888 16.896 37.888 37.888v91.648c0 21.504-16.896 38.4-37.888 38.4z m-244.224-51.2H757.76V473.6h-230.912v65.536zM396.288 499.712L451.072 445.44c8.704-8.704 8.704-23.04 0-32.256-8.704-8.704-23.04-8.704-32.256 0L348.16 483.84c-8.704 8.704-8.704 23.04 0 32.256l70.656 70.656c8.704 8.704 23.04 8.704 32.256 0 8.704-8.704 8.704-23.04 0-32.256L396.288 499.712z" fill="#515151" p-id="6132"></path>
</svg>
