<svg t="1722407528395" class="icon" viewBox="0 0 1024 1024" version="1.1" xmlns="http://www.w3.org/2000/svg" p-id="13118" width="16" height="16">
    <path d="M122.368 165.888h778.24c-9.216 0-16.384-7.168-16.384-16.384v713.728c0-9.216 7.168-16.384 16.384-16.384h-778.24c9.216 0 16.384 7.168 16.384 16.384V150.016c0 8.192-6.656 15.872-16.384 15.872z m-32.768 684.544c0 26.112 20.992 47.104 47.104 47.104h750.08c26.112 0 47.104-20.992 47.104-47.104V162.304c0-26.112-20.992-47.104-47.104-47.104H136.704c-26.112 0-47.104 20.992-47.104 47.104v688.128z" fill="#515151" p-id="13119"></path>
    <path d="M202.5216 608.68096l142.14656-222.09536 45.2864 28.9792-142.15168 222.10048zM346.35264 608.69632L488.4992 386.59584l45.28128 28.9792-142.15168 222.1056zM490.18368 608.70656l142.15168-222.10048 45.28128 28.9792-142.15168 222.1056zM634.01472 608.7168l142.15168-222.10048 45.28128 28.9792-142.15168 222.1056z" fill="#515151" p-id="13120"></path>
</svg>
