<svg t="1722419919423" class="icon" viewBox="0 0 1024 1024" version="1.1" xmlns="http://www.w3.org/2000/svg" p-id="23899" width="16" height="16">
    <path d="M141.99999969 141.99999969V312.00000031a30 30 0 0 1-60 0V132.00000031c0-27.6 22.39999969-49.99999969 50.00000062-50.00000062h279.99999938c27.6 0 49.99999969 22.39999969 50.00000062 50.00000062v759.99999938c0 27.6-22.39999969 49.99999969-50.00000062 50.00000062h-279.99999938c-27.6 0-49.99999969-22.39999969-50.00000062-50.00000062V711.99999969a30 30 0 0 1 60 0v170.00000062h260.00000062V141.99999969h-260.00000062zM621.99999969 141.99999969v740.00000062h260.00000062V711.99999969a30 30 0 0 1 60 0v180c0 27.6-22.39999969 49.99999969-50.00000062 50.00000062h-279.99999938c-27.6 0-49.99999969-22.39999969-50.00000062-50.00000062v-759.99999938c0-27.6 22.39999969-49.99999969 50.00000062-50.00000062h279.99999938c27.6 0 49.99999969 22.39999969 50.00000062 50.00000062V312.00000031a30 30 0 0 1-60 0V141.99999969h-260.00000062z" fill="#515151" p-id="23900"></path>
    <path d="M561.99999969 512a30 30 0 0 1 30-30l320.00000062 0.28000031a30 30 0 0 1 0 60l-320.00000062-0.28000031a30 30 0 0 1-30-30zM462.00000031 512a30 30 0 0 1-30 30l-320.00000062 0.28000031a30 30 0 0 1 0-60l320.00000062-0.28000031a30 30 0 0 1 30 30z" fill="#515151" p-id="23901"></path>
    <path d="M795.32 395.43999969a30 30 0 0 1 42.43999969 0l95.48000062 95.44000031a30 30 0 0 1 0 42.40000031l-95.48000062 95.47999969a30 30 0 0 1-42.39999938-42.40000031l31.8-31.83999938 42.39999938-42.40000031-74.19999938-74.28a30 30 0 0 1 0-42.40000031zM228.32 395.6a30 30 0 0 1 0 42.40000031l-74.23999969 74.28 74.23999969 74.23999969a30 30 0 0 1-42.40000031 42.40000031L90.39999969 533.48a30 30 0 0 1 0-42.40000031L185.88000031 395.6a30 30 0 0 1 42.43999969 0z" fill="#515151" p-id="23902"></path>
</svg>
