<svg t="1722438216554" class="icon" viewBox="0 0 1024 1024" version="1.1" xmlns="http://www.w3.org/2000/svg" p-id="22232" width="16" height="16">
    <path d="M280.23466667 527.70133333v-193.42222222c0-21.84533333 17.97688889-39.82222222 39.82222222-39.82222222 21.95911111 0 39.82222222 17.97688889 39.82222222 39.82222222v193.42222222c0 21.84533333-17.86311111 39.82222222-39.82222222 39.82222222s-39.82222222-17.97688889-39.82222222-39.82222222zM472.17777778 527.70133333v-125.15555555c0-21.95911111 17.97688889-39.82222222 39.82222222-39.82222223s39.82222222 17.86311111 39.82222222 39.82222223v125.15555555c0 21.84533333-17.97688889 39.82222222-39.82222222 39.82222222-21.95911111 0-39.82222222-17.97688889-39.82222222-39.82222222zM664.23466667 527.70133333v-91.02222222c0-21.84533333 17.97688889-39.82222222 39.82222222-39.82222222s39.82222222 17.86311111 39.82222222 39.82222222v91.02222222c0 21.84533333-17.97688889 39.82222222-39.82222222 39.82222222-21.95911111 0-39.82222222-17.97688889-39.82222222-39.82222222zM898.84444445 938.66666667H125.15555555c-21.84533333 0-39.82222222-17.97688889-39.82222222-39.82222222s17.86311111-39.82222222 39.82222222-39.82222223h773.6888889c21.84533333 0 39.82222222 17.97688889 39.82222222 39.82222223 0 21.95911111-17.86311111 39.82222222-39.82222222 39.82222222z" fill="#515151" p-id="22233"></path>
    <path d="M898.84444445 768H125.15555555c-21.84533333 0-39.82222222-17.97688889-39.82222222-39.82222222s17.86311111-39.82222222 39.82222222-39.82222223h773.6888889c21.84533333 0 39.82222222 17.97688889 39.82222222 39.82222223 0 21.95911111-17.86311111 39.82222222-39.82222222 39.82222222zM898.84444445 164.97777778H125.15555555c-21.84533333 0-39.82222222-17.86311111-39.82222222-39.82222223 0-21.84533333 17.86311111-39.82222222 39.82222222-39.82222222h773.6888889c21.84533333 0 39.82222222 17.86311111 39.82222222 39.82222222s-17.86311111 39.82222222-39.82222222 39.82222223z" fill="#515151" p-id="22234"></path>
    <path d="M85.33333333 728.17777778V125.15555555c0-21.84533333 17.86311111-39.82222222 39.82222222-39.82222222 21.84533333 0 39.82222222 17.86311111 39.82222223 39.82222222v603.02222223c0 21.84533333-17.86311111 39.82222222-39.82222223 39.82222222s-39.82222222-17.86311111-39.82222222-39.82222222zM859.02222222 728.17777778V125.15555555c0-21.84533333 17.97688889-39.82222222 39.82222223-39.82222222s39.82222222 17.86311111 39.82222222 39.82222222v603.02222223c0 21.84533333-17.97688889 39.82222222-39.82222222 39.82222222s-39.82222222-17.86311111-39.82222223-39.82222222z" fill="#515151" p-id="22235"></path>
</svg>
