<svg t="1722483649689" class="icon" viewBox="0 0 1024 1024" version="1.1" xmlns="http://www.w3.org/2000/svg" p-id="8827" width="16" height="16">
    <path d="M872.0168 351.99999969a120 120 0 1 1-113.11999969 160.00000031H625.13679969a120 120 0 0 1-226.23999938 0H265.13679969a120 120 0 1 1 0-79.99999969h133.68a120 120 0 0 1 226.40000062 0h133.59999938A120 120 0 0 1 872.0168 351.99999969z m-720 80.00000062a40.00000031 40.00000031 0 1 0 0 79.99999969 40.00000031 40.00000031 0 0 0 0-79.99999969z m720 0a40.00000031 40.00000031 0 1 0 0 79.99999969 40.00000031 40.00000031 0 0 0 0-79.99999969z" fill="#515151" p-id="8828"></path>
</svg>
