<svg t="1722435672653" class="icon" viewBox="0 0 1024 1024" version="1.1" xmlns="http://www.w3.org/2000/svg" p-id="6014" width="16" height="16">
    <path d="M680.75 286.94375c124.03125 0 225 100.9125 225 225.05625 0 124.03125-100.96875 225-225 225L343.25 737c-124.03125 0-225-100.9125-225-225s100.96875-225 225-225l196.875 0L680.75 286.94375zM680.75 230.75L343.25 230.75C187.8875 230.75 62 356.6375 62 512s125.8875 281.25 281.25 281.25l337.5 0c155.3625 0 281.25-125.8875 281.25-281.25S836.1125 230.75 680.75 230.75L680.75 230.75zM540.125 511.8875c0 93.20625-75.4875 168.75-168.75 168.75-93.15 0-168.75-75.54375-168.75-168.75 0-93.15 75.6-168.75 168.75-168.75C464.6375 343.1375 540.125 418.7375 540.125 511.8875z" fill="#515151" p-id="6015"></path>
</svg>
