<svg t="1724041794850" class="icon" viewBox="0 0 1024 1024" version="1.1" xmlns="http://www.w3.org/2000/svg" p-id="6902" width="16" height="16">
    <path d="M194.834375 557.140625v-44.38125h223.59375v44.38125H336.7953125v194.3578125H276.340625V557.140625z m204.6515625 75.3890625a48.9796875 48.9796875 0 0 1 9.5765625-27.928125 58.0921875 58.0921875 0 0 1 21.43125-17.971875 108.3375 108.3375 0 0 1 29.0671875-9.5765625 187.65 187.65 0 0 1 32.90625-2.6578125 203.090625 203.090625 0 0 1 30.20625 1.8984375 100.1953125 100.1953125 0 0 1 27.5484375 6.8765625 50.625 50.625 0 0 1 20.671875 15.3140625 35.184375 35.184375 0 0 1 8.015625 25.3125v89.4375a209.7984375 209.7984375 0 0 0 0 22.5703125 35.521875 35.521875 0 0 0 5.7375 16.0734375h-53.578125a66.1078125 66.1078125 0 0 1-2.7-8.015625 32.90625 32.90625 0 0 1 0-8.8171875 76.4859375 76.4859375 0 0 1-30.965625 16.875 137.19375 137.19375 0 0 1-35.5640625 4.5984375 119.896875 119.896875 0 0 1-26.7890625-3.0796875 62.353125 62.353125 0 0 1-21.09375-9.5765625 45.1828125 45.1828125 0 0 1-16.875-15.3140625 48.9796875 48.9796875 0 0 1-4.978125-23.3296875 45.9 45.9 0 0 1 5.990625-24.13125 45.140625 45.140625 0 0 1 15.3140625-15.3140625 72.05625 72.05625 0 0 1 21.43125-8.775 171.7453125 171.7453125 0 0 1 24.46875-4.21875l24.0890625-3.0796875a156.09375 156.09375 0 0 0 21.09375-2.6578125 42.8203125 42.8203125 0 0 0 14.5546875-6.1171875 11.896875 11.896875 0 0 0 4.5984375-11.0953125 22.190625 22.190625 0 0 0-2.7-12.234375 23.2875 23.2875 0 0 0-7.6359375-7.25625 42.1875 42.1875 0 0 0-11.0953125-3.459375h-13.5421875a45.5203125 45.5203125 0 0 0-25.6078125 6.1171875 25.3125 25.3125 0 0 0-10.3359375 20.25z m125.1703125 35.184375a21.76875 21.76875 0 0 1-8.4375 4.21875l-11.0953125 2.6578125h-25.3125l-12.234375 2.7a42.525 42.525 0 0 0-10.4203125 4.55625 26.409375 26.409375 0 0 0-7.1296875 7.340625 23.6671875 23.6671875 0 0 0-2.278125 11.0953125 22.190625 22.190625 0 0 0 2.278125 10.715625 18.6890625 18.6890625 0 0 0 7.6359375 6.8765625 29.53125 29.53125 0 0 0 10.715625 3.8390625h12.65625a53.6203125 53.6203125 0 0 0 24.46875-4.5984375 29.86875 29.86875 0 0 0 12.99375-11.475 31.3875 31.3875 0 0 0 5.3578125-12.99375 60.5390625 60.5390625 0 0 0 0-10.715625z m151.115625-154.9546875v85.6828125a56.2359375 56.2359375 0 0 1 26.7890625-19.490625 102.684375 102.684375 0 0 1 35.5640625-6.1171875 80.15625 80.15625 0 0 1 29.53125 5.3578125 76.528125 76.528125 0 0 1 26.0296875 16.453125 85.7671875 85.7671875 0 0 1 19.1109375 28.3078125 120.1078125 120.1078125 0 0 1 0 82.265625 87.58125 87.58125 0 0 1-19.1109375 28.6875 81.084375 81.084375 0 0 1-26.0296875 16.453125 88.59375 88.59375 0 0 1-29.53125 5.3578125 114.834375 114.834375 0 0 1-38.2640625-6.1171875 47.08125 47.08125 0 0 1-26.0296875-20.671875v22.5703125h-52.4390625v-238.7390625z m88.003125 132.0046875a53.5359375 53.5359375 0 0 0-8.4375-17.5921875 38.2640625 38.2640625 0 0 0-14.5546875-12.234375 48.6 48.6 0 0 0-41.3015625 0 34.8046875 34.8046875 0 0 0-14.5546875 12.234375 46.996875 46.996875 0 0 0-8.4375 17.5921875 83.86875 83.86875 0 0 0 0 42.1875 48.515625 48.515625 0 0 0 8.4375 17.971875 41.3015625 41.3015625 0 0 0 14.5546875 12.234375 49.021875 49.021875 0 0 0 41.3015625 0 45.1828125 45.1828125 0 0 0 14.5546875-12.234375 55.4765625 55.4765625 0 0 0 8.4375-17.971875 92.2640625 92.2640625 0 0 0 2.6578125-20.671875 96.440625 96.440625 0 0 0-2.6578125-21.43125z m169.0875-273.1640625H507.021875a76.528125 76.528125 0 0 1-76.4859375-76.528125V91.1796875h387.534375a114.75 114.75 0 0 1 114.75 114.7921875zM507.021875 167.7078125v127.40625h349.2703125V205.971875a38.2640625 38.2640625 0 0 0-38.2640625-38.2640625z m0 0" fill="#515151" p-id="6903"></path>
    <path d="M818.0703125 932.8203125H205.971875a114.75 114.75 0 0 1-114.7921875-114.75V205.971875A114.75 114.75 0 0 1 205.971875 91.1796875h612.0984375a114.75 114.75 0 0 1 114.75 114.7921875v612.0984375a114.75 114.75 0 0 1-114.75 114.75zM205.971875 167.7078125a38.2640625 38.2640625 0 0 0-38.2640625 38.2640625v612.0984375a38.2640625 38.2640625 0 0 0 38.2640625 38.2640625h612.0984375a38.2640625 38.2640625 0 0 0 38.2640625-38.2640625V205.971875a38.2640625 38.2640625 0 0 0-38.2640625-38.2640625z m0 0" fill="#515151" p-id="6904"></path>
</svg>
