<svg t="1724041725074" class="icon" viewBox="0 0 1024 1024" version="1.1" xmlns="http://www.w3.org/2000/svg" p-id="6742" width="16" height="16">
    <path d="M129.1484375 316.0390625h759.6703125v59.0625H129.1484375z" fill="#515151" p-id="6743"></path>
    <path d="M370.9671875 182.346875h59.0625v157.190625h-59.0625zM611.478125 204.621875h59.0625v134.915625h-59.0625z" fill="#515151" p-id="6744"></path>
    <path d="M934.296875 882.1109375H93.2046875V154.0390625h336.825v34.25625H934.296875z m-782.0296875-59.0625H875.234375V247.3578125H370.9671875v-34.25625H152.2671875z" fill="#515151" p-id="6745"></path>
    <path d="M427.034375 545.328125H363.415625v194.9484375H315.7859375V545.328125h-63.28125v-41.1328125h174.5296875zM429.059375 581.9046875a98.4234375 98.4234375 0 0 1 28.85625-10.3359375 146.390625 146.390625 0 0 1 30.88125-3.965625q66.740625 0 66.7828125 70.875v101.7984375H511.3671875v-24.553125h-0.5484375q-16.2421875 28.6453125-47.6296875 28.6875a48.684375 48.684375 0 0 1-36.196875-13.66875q-13.584375-13.584375-13.6265625-37.0828125 0-48.4734375 54.5484375-56.4046875l43.7484375-6.24375q0-29.53125-28.940625-29.53125a89.7328125 89.7328125 0 0 0-53.6625 18.309375zM481.5828125 663.875q-25.3125 3.54375-25.3125 24.0890625a20.08125 20.08125 0 0 0 6.1171875 15.2296875 22.95 22.95 0 0 0 16.4953125 5.7796875 29.53125 29.53125 0 0 0 23.45625-10.63125 39.3609375 39.3609375 0 0 0 9.196875-26.5359375V659.65625zM641.8953125 720.0265625v20.25h-46.40625V490.90625h46.40625v106.6921875h0.590625q18.2671875-29.86875 52.1015625-29.86875a56.109375 56.109375 0 0 1 47.1234375 22.2328125q17.0859375 22.275 16.875 61.425 0 41.934375-19.575 67.5a62.184375 62.184375 0 0 1-51.9328125 25.6078125 49.359375 49.359375 0 0 1-44.7609375-24.384375z m-0.7171875-52.6078125a42.1875 42.1875 0 0 0 9.365625 27.8859375 29.53125 29.53125 0 0 0 23.7515625 11.30625 30.965625 30.965625 0 0 0 27.1265625-14.34375c6.4546875-9.534375 9.703125-23.0765625 9.703125-40.5421875q0-21.76875-8.859375-34.0453125a29.19375 29.19375 0 0 0-25.3125-12.2765625 31.809375 31.809375 0 0 0-25.6921875 12.31875 48.2625 48.2625 0 0 0-10.1671875 31.725z" fill="#515151" p-id="6746"></path>
</svg>
