<svg t="1722437244078" class="icon" viewBox="0 0 1024 1024" version="1.1" xmlns="http://www.w3.org/2000/svg" p-id="21274" width="16" height="16">
    <path d="M152 107h720a45 45 0 0 1 45 45v720a45 45 0 0 1-45 45H152a45 45 0 0 1-45-45V152a45 45 0 0 1 45-45z m0 90v630a45 45 0 0 0 45 45h630a45 45 0 0 0 45-45V197a45 45 0 0 0-45-45H197a45 45 0 0 0-45 45z m45 265.31982422v-35.63964844h48.06035156V232.63964844H197V197h136.08017578v35.63964844h-48.06035156v194.04052734h48.06035156v35.63964844H197zM377 197h450v270h-450V197z" fill="#515151" p-id="21275"></path>
</svg>
