<svg t="1723543288408" class="icon" viewBox="0 0 1024 1024" version="1.1" xmlns="http://www.w3.org/2000/svg" p-id="11573" width="16" height="16">
    <path d="M793.24999973 933.875L230.75000027 933.875c-77.34375027 0-140.62500027-63.28125-140.62500027-140.62500027L90.125 230.75000027c0-77.34375027 63.28125-140.62500027 140.62500027-140.62500027l562.50000027 0c77.34375027 0 140.62500027 63.28125 140.62500029 140.62500027l0 562.50000027C933.875 870.59375 870.59375 933.875 793.24999973 933.875zM230.75000027 160.43749973C192.07812473 160.43749973 160.43749973 192.07812473 160.43749973 230.75000027l0 562.50000027c0 38.67187473 31.640625 70.31249973 70.31249973 70.31249973l562.50000027 0c38.67187473 0 70.31249973-31.640625 70.31249973-70.31249973L863.56250027 230.75000027c0-38.67187473-31.640625-70.31249973-70.31249973-70.31249973L230.75000027 160.43749973z" fill="#515151" p-id="11574"></path>
    <path d="M687.78124973 371.37499973L336.21875027 371.37499973C315.12500027 371.37499973 301.0625 357.31250027 301.0625 336.21875027s14.06250027-35.15625027 35.15625027-35.15625027l351.56250027 0c21.09375 0 35.15625027 14.06250027 35.15625029 35.15625027S708.87499973 371.37499973 687.78124973 371.37499973z" fill="#515151" p-id="11575"></path>
    <path d="M336.21875027 406.53125C315.12500027 406.53125 301.0625 392.46874973 301.0625 371.37499973L301.0625 336.21875027c0-21.09375 14.06250027-35.15625027 35.15625027-35.15625027s35.15625027 14.06250027 35.15625028 35.15625027l0 35.15625028C371.37499973 392.46874973 357.31250027 406.53125 336.21875027 406.53125z" fill="#515151" p-id="11576"></path>
    <path d="M687.78124973 406.53125c-21.09375 0-35.15625027-14.06250027-35.15625028-35.15625027L652.62500027 336.21875027c0-21.09375 14.06250027-35.15625027 35.15625028-35.15625027s35.15625027 14.06250027 35.15625028 35.15625027l0 35.15625028C722.9375 392.46874973 708.87499973 406.53125 687.78124973 406.53125z" fill="#515151" p-id="11577"></path>
    <path d="M512 722.9375c-21.09375 0-35.15625027-14.06250027-35.15625027-35.15625027L476.84374973 336.21875027c0-21.09375 14.06250027-35.15625027 35.15625027-35.15625027s35.15625027 14.06250027 35.15625027 35.15625027l0 351.56250027C547.15625027 708.87499973 533.09375 722.9375 512 722.9375z" fill="#515151" p-id="11578"></path>
    <path d="M547.15625027 722.9375l-70.31249972 0c-21.09375 0-35.15625027-14.06250027-35.15625028-35.15625027s14.06250027-35.15625027 35.15625028-35.15625028l70.31249972 0c21.09375 0 35.15625027 14.06250027 35.15625028 35.15625028S568.25000027 722.9375 547.15625027 722.9375z" fill="#515151" p-id="11579"></path>
</svg>
