<svg t="1722475068937" class="icon" viewBox="0 0 1024 1024" version="1.1" xmlns="http://www.w3.org/2000/svg" p-id="23839" width="16" height="16">
    <path d="M203.2890625 566.31640625V457.68359375c42.36328125-10.63476563 73.828125-49.04296875 73.828125-94.65820313 0-45.61523438-31.46484375-84.0234375-73.828125-94.65820312V121.85351562c0-13.09570313-10.63476563-23.73046875-23.73046875-23.73046874s-23.73046875 10.63476563-23.73046875 23.73046875v146.51367187C113.46484375 279.00195312 82 317.41015625 82 363.02539062c0 45.61523438 31.46484375 84.0234375 73.828125 94.65820313v108.72070313c-42.36328125 10.546875-73.828125 48.95507813-73.828125 94.57031249s31.46484375 84.0234375 73.828125 94.65820313v146.51367188c0 13.09570313 10.63476563 23.73046875 23.73046875 23.73046874s23.73046875-10.63476563 23.73046875-23.73046875V755.6328125c42.36328125-10.63476563 73.828125-49.04296875 73.828125-94.65820313s-31.46484375-84.0234375-73.828125-94.65820312zM134.734375 363.02539062c0-24.69726563 20.12695313-44.82421875 44.82421875-44.82421874s44.82421875 20.12695313 44.82421875 44.82421875-20.12695313 44.82421875-44.82421875 44.82421875-44.82421875-20.12695313-44.82421875-44.82421875z m44.82421875 342.77343751c-24.69726563 0-44.82421875-20.12695313-44.82421875-44.82421876s20.12695313-44.82421875 44.82421875-44.82421875 44.82421875 20.12695313 44.82421875 44.82421875-20.12695313 44.82421875-44.82421875 44.82421875zM909.9296875 310.73046875H391.375c-14.58984375 0-26.3671875-11.77734375-26.3671875-26.3671875s11.77734375-26.3671875 26.3671875-26.3671875h518.5546875c14.58984375 0 26.3671875 11.77734375 26.3671875 26.3671875s-11.77734375 26.3671875-26.3671875 26.3671875zM759.98828125 463.66015625H387.5078125c-12.48046875 0-22.5-10.10742188-22.5-22.5v-7.64648438c0-12.48046875 10.10742188-22.5 22.5-22.49999999h372.39257812c12.48046875 0 22.5 10.10742188 22.5 22.49999999v7.64648438c0.08789063 12.39257813-10.01953125 22.5-22.41210937 22.5z" fill="#515151" p-id="23840"></path>
    <path d="M909.9296875 611.31640625H391.375c-14.58984375 0-26.3671875-11.77734375-26.3671875-26.3671875s11.77734375-26.3671875 26.3671875-26.3671875h518.5546875c14.58984375 0 26.3671875 11.77734375 26.3671875 26.3671875s-11.77734375 26.3671875-26.3671875 26.3671875zM759.98828125 764.24609375H387.5078125c-12.48046875 0-22.5-10.10742188-22.5-22.5v-7.64648438c0-12.48046875 10.10742188-22.5 22.5-22.49999999h372.39257812c12.48046875 0 22.5 10.10742188 22.5 22.49999999v7.64648438c0.08789063 12.39257813-10.01953125 22.5-22.41210937 22.5z" fill="#515151" p-id="23841"></path>
</svg>
