<svg t="1722422205425" class="icon" viewBox="0 0 1024 1024" version="1.1" xmlns="http://www.w3.org/2000/svg" p-id="7593" width="16" height="16">
    <path d="M529.73749971 143.29999971a28.125 28.125 0 0 0-35.47499942 0l-150.00000029 121.87500029a28.125 28.125 0 1 0 35.47500029 43.65L512 201.34999971l132.26249971 107.47500029a28.125 28.125 0 1 0 35.47500029-43.65l-150.00000029-121.87500029zM165.12499971 399.5A84.375 84.375 0 0 0 80.74999971 483.875v56.25a84.375 84.375 0 0 0 168.75 0v-56.25A84.375 84.375 0 0 0 165.12499971 399.5zM136.99999971 483.875a28.125 28.125 0 0 1 56.25 0v56.25a28.125 28.125 0 0 1-56.25 0v-56.25zM371.375 399.5A84.375 84.375 0 0 0 287 483.875v56.25a84.375 84.375 0 0 0 168.75 0v-56.25A84.375 84.375 0 0 0 371.375 399.5z m-28.125 84.375a28.125 28.125 0 0 1 56.25 0v56.25a28.125 28.125 0 0 1-56.25 0v-56.25z m243.74999971 0a84.375 84.375 0 0 1 168.75 0v56.25a84.375 84.375 0 0 1-168.75 0v-56.25z m84.375-28.125a28.125 28.125 0 0 0-28.125 28.125v56.25a28.125 28.125 0 0 0 56.25 0v-56.25a28.125 28.125 0 0 0-28.125-28.125z m206.25000029-56.25a84.375 84.375 0 0 0-84.375 84.375v56.25a84.375 84.375 0 0 0 168.75 0v-56.25A84.375 84.375 0 0 0 877.625 399.5zM849.5 483.875a28.125 28.125 0 0 1 56.25 0v56.25a28.125 28.125 0 0 1-56.25 0v-56.25z m-299.99999971-18.74999971a28.125 28.125 0 1 1-56.25 0 28.125 28.125 0 0 1 56.25 0z m-28.125 140.625a28.125 28.125 0 1 0 0-56.25 28.125 28.125 0 0 0 0 56.25z m8.36249942 274.95l150.00000029-121.87500029a28.125 28.125 0 1 0-35.47500029-43.65L512 822.65000029l-132.26249971-107.47500029a28.125 28.125 0 0 0-35.47500029 43.65l150.00000029 121.87500029a28.125 28.125 0 0 0 35.47499942 0z" fill="#515151" p-id="7594"></path>
</svg>
