<svg t="1722422716751" class="icon" viewBox="0 0 1024 1024" version="1.1" xmlns="http://www.w3.org/2000/svg" p-id="5699" width="16" height="16">
    <path d="M867.07335395 95.89841237c33.28812715 0 61.02823253 27.74010539 61.02823368 61.02823368V872.62137571c0 33.28812715-27.74010539 61.02823253-61.02823368 61.02823254H156.92664605C123.6385189 928.10158763 95.89841237 900.3614811 95.89841237 867.07335395V156.92664605C95.89841237 123.6385189 123.6385189 95.89841237 156.92664605 95.89841237h710.1467079zM389.94353493 156.92664605H184.66675143c-16.64406301 0-27.74010539 11.09604238-27.74010538 22.19208362v660.2145189c0 16.64406301 11.09604238 27.74010539 22.19208362 27.74010538h216.37282588V156.92664605z m449.38971364 0h-388.3614811V872.62137571h388.3614811c16.64406301 0 27.74010539-11.09604238 27.74010538-22.19208476v-665.76253952c0-16.64406301-11.09604238-27.74010539-27.74010538-27.74010538z m-61.02823254 471.5817984c16.64406301 0 27.74010539 11.09604238 27.74010539 27.74010538s-11.09604238 27.74010539-27.74010539 27.74010652H539.74010539c-16.64406301 0-27.74010539-11.09604238-27.74010539-27.74010652s11.09604238-27.74010539 27.74010539-27.74010538h238.56491064z m0-177.53667698c16.64406301 0 27.74010539 11.09604238 27.74010539 27.74010538s-11.09604238 27.74010539-27.74010539 27.74010653H539.74010539c-16.64406301 0-27.74010539-11.09604238-27.74010539-27.74010653s11.09604238-27.74010539 27.74010539-27.74010538h238.56491064zM234.59894158 217.95487858l94.31635968 77.67229553c5.54802062 0 5.54802062 5.54802062 5.54802176 11.09604239s0 5.54802062-5.54802176 11.09604238L234.59894158 389.94353493c-5.54802062 5.54802062-22.19208477 0-22.19208476-11.09604238V229.05092096c0-11.09604238 11.09604238-16.64406301 22.19208476-11.09604238z m543.70607445 55.48021191c16.64406301 0 27.74010539 11.09604238 27.74010539 27.74010538s-11.09604238 27.74010539-27.74010539 27.74010539H539.74010539c-16.64406301 0-27.74010539-11.09604238-27.74010539-27.74010539s11.09604238-27.74010539 27.74010539-27.74010538h238.56491064z" fill="#515151" p-id="5700"></path>
    <path d="M867.07335395 933.64960825H156.92664605c-33.28812715 0-66.57625429-27.74010539-66.5762543-66.5762543V156.92664605c0-33.28812715 27.74010539-66.57625429 66.5762543-66.5762543H872.62137571c33.28812715 0 66.57625429 27.74010539 66.5762543 66.5762543V872.62137571c-5.54802062 33.28812715-33.28812715 61.02823253-72.12427606 61.02823254zM156.92664605 101.44643413c-27.74010539 0-55.48021191 22.19208477-55.48021192 55.48021192V872.62137571c0 27.74010539 22.19208477 55.48021191 55.48021192 55.48021192H872.62137571c27.74010539 0 55.48021191-22.19208477 55.48021192-55.48021192V156.92664605c0-27.74010539-22.19208477-55.48021191-55.48021192-55.48021192H156.92664605zM839.33324857 872.62137571H445.42374571V151.37862429h393.90950286c16.64406301 0 33.28812715 16.64406301 33.28812714 33.28812714v660.2145189c-5.54802062 16.64406301-16.64406301 27.74010539-33.28812714 27.74010538z m-382.81346048-11.09604238h382.81346048c11.09604238 0 22.19208477-11.09604238 22.19208476-22.19208476V184.66675143c0-11.09604238-11.09604238-22.19208477-22.19208476-22.19208476H456.51978809v699.05066666z m-61.02823254 11.09604238h-221.9208465c-11.09604238 0-22.19208477-16.64406301-22.19208476-33.28812714V179.11872967c0-16.64406301 16.64406301-27.74010539 33.28812714-27.74010538h216.37282475v721.24275142zM184.66675143 162.47466667c-11.09604238 0-22.19208477 11.09604238-22.19208476 22.19208476v660.2145189c0 11.09604238 11.09604238 22.19208477 22.19208476 22.19208362h205.2767835V162.47466667H184.66675143z m593.6382646 532.61003207H539.74010539c-16.64406301 0-33.28812715-16.64406301-33.28812601-33.28812715s16.64406301-33.28812715 33.28812601-33.28812714h238.56491064c16.64406301 0 33.28812715 16.64406301 33.28812715 33.28812714s-11.09604238 33.28812715-33.28812715 33.28812715zM539.74010539 634.05646507c-11.09604238 0-22.19208477 11.09604238-22.19208477 22.19208476s11.09604238 22.19208477 22.19208477 22.19208476h238.56491064c11.09604238 0 22.19208477-11.09604238 22.19208477-22.19208476s-11.09604238-22.19208477-22.19208477-22.19208476H539.74010539z m238.56491064-116.50844445H539.74010539c-16.64406301 0-33.28812715-16.64406301-33.28812601-33.28812601s16.64406301-33.28812715 33.28812601-33.28812714h238.56491064c16.64406301 0 33.28812715 16.64406301 33.28812715 33.28812714s-11.09604238 33.28812715-33.28812715 33.28812601zM539.74010539 456.51978809c-11.09604238 0-22.19208477 11.09604238-22.19208477 22.19208476s11.09604238 22.19208477 22.19208477 22.19208477h238.56491064c11.09604238 0 22.19208477-11.09604238 22.19208477-22.19208477s-11.09604238-22.19208477-22.19208477-22.19208476H539.74010539z m-316.23720619-55.48021191h-5.54802062c-5.54802062-5.54802062-11.09604238-11.09604238-11.09604239-22.19208363V229.05092096c0-5.54802062 5.54802062-11.09604238 11.09604239-16.64406414 5.54802062-5.54802062 11.09604238 0 16.644063 0l11.09604239 11.09604238 83.22031729 66.57625429c5.54802062 5.54802062 5.54802062 11.09604238 5.54802176 16.64406301 0 5.54802062 0 11.09604238-5.54802176 16.64406414L234.59894158 395.49155555s-5.54802062 5.54802062-11.09604238 5.54802063z m5.54802176-183.0846976c-5.54802062 0-5.54802062 0 0 0-5.54802062 0-5.54802062 5.54802062-5.54802176 5.54802062v155.34459335c0 5.54802062 0 5.54802062 5.54802176 5.54802062h5.54802062l94.31635968-77.67229667v-5.54802063-5.54802176L229.05092096 217.95487858z m549.25409507 122.05646507H539.74010539c-16.64406301 0-33.28812715-16.64406301-33.28812601-33.28812715s16.64406301-33.28812715 33.28812601-33.28812601h238.56491064c16.64406301 0 33.28812715 16.64406301 33.28812715 33.28812601s-11.09604238 33.28812715-33.28812715 33.28812715zM539.74010539 278.98311111c-11.09604238 0-22.19208477 11.09604238-22.19208477 22.19208476s11.09604238 22.19208477 22.19208477 22.19208477h238.56491064c11.09604238 0 22.19208477-11.09604238 22.19208477-22.19208477s-11.09604238-22.19208477-22.19208477-22.19208476H539.74010539z" fill="#515151" p-id="5701"></path>
</svg>
