<svg t="1722421027237" class="icon" viewBox="0 0 1024 1024" version="1.1" xmlns="http://www.w3.org/2000/svg" p-id="6481" width="16" height="16">
    <path d="M312.00000031 351.99999969h399.99999938v80.00000062H312.00000031V351.99999969zM312.00000031 512h399.99999938v79.99999969H312.00000031v-79.99999969z" fill="#515151" p-id="6482"></path>
    <path d="M192.00000031 951.99999969l186.6-120H831.99999969c44.20000031 0 79.99999969-30.43999969 80.00000062-67.99999969V219.99999969c0-37.56-35.80000031-67.99999969-80.00000062-67.99999969H192.00000031c-44.20000031 0-79.99999969 30.43999969-80.00000062 67.99999969v544.00000031c0 37.56 35.80000031 67.99999969 80.00000062 67.99999969v120z m69.99999938-128.23999969V762.00000031H192.00000031a19.72000031 19.72000031 0 0 1-10.00000031-2.4V224.40000031A19.72000031 19.72000031 0 0 1 192.00000031 222.00000031h639.99999938c4.8 0 8.16 1.32 10.00000031 2.4v535.2a19.72000031 19.72000031 0 0 1-10.00000031 2.4H357.99999969l-96 61.75999969z" fill="#515151" p-id="6483"></path>
</svg>
