<svg t="1722437093034" class="icon" viewBox="0 0 1024 1024" version="1.1" xmlns="http://www.w3.org/2000/svg" p-id="21117" width="16" height="16">
    <path d="M287 252.08333333H118.25C87.2 252.08333333 62 277.28333333 62 308.33333333v393.75c0 31.05 25.2 56.25 56.25 56.25H287c31.05 0 56.25-25.2 56.25-56.25V308.33333333c0-31.05-25.2-56.25-56.25-56.25z m0 450H118.25V308.33333333H287v393.75zM905.75 252.08333333H737c-31.05 0-56.25 25.2-56.25 56.25v393.75c0 31.05 25.2 56.25 56.25 56.25h168.75c31.05 0 56.25-25.2 56.25-56.25V308.33333333c0-31.05-25.2-56.25-56.25-56.25zM475.55 391.58333333c-10.8-10.35-28.35-10.35-39.15 0-11.25 10.8-11.7 28.8-0.9 39.6l99.45 99.45L435.5 630.08333333c-10.8 10.8-10.8 28.8 0 39.6 10.8 10.8 28.8 10.8 39.6 0l119.25-119.25 2.25-2.25c9-11.25 8.1-27.45-2.25-37.35L475.55 391.58333333z" fill="#515151" p-id="21118"></path>
</svg>
