<svg t="1722437620330" class="icon" viewBox="0 0 1024 1024" version="1.1" xmlns="http://www.w3.org/2000/svg" p-id="21588" width="16" height="16">
    <path d="M612.71282128 627.34518125h191.23132501c14.67630088 0 26.54037685-11.86407598 26.54037686-26.54037685V409.5734794c0-14.67630088-11.86407598-26.54037685-26.54037686-26.54037687H612.71282128c-14.67630088 0-26.54037685 11.86407598-26.54037685 26.54037687v191.231325c0 14.67630088 11.86407598 26.54037685 26.54037686 26.54037685zM540.38589981 812.95205557H391.51371904c-10.45796308 0-18.80675683-8.43667646-18.80675683-18.80675684V550.79992198c0-10.45796308 8.43667646-18.80675683 18.80675683-18.80675685h148.87218076c10.45796308 0 18.80675683-8.43667646 18.80675684-18.80675771v-15.81876739c0-10.45796308-8.43667646-18.80675683-18.80675684-18.80675771H391.51371904c-10.45796308 0-18.80675683-8.43667646-18.80675683-18.80675683V306.39996055h72.76633154c14.67630088 0 26.54037685-11.86407598 26.54037685-26.54037686V88.54037685C472.0136706 73.86407597 460.14959463 62 445.47329375 62H254.15408692c-14.67630088 0-26.54037685 11.86407598-26.54037774 26.54037685v191.231325c0 14.67630088 11.86407598 26.54037685 26.54037773 26.54037687h64.94482882v153.17840039c0 10.45796308-8.43667646 18.80675683-18.80675685 18.80675771H212.23435185c-10.45796308 0-18.80675683 8.43667646-18.80675683 18.80675683v15.81876739c0 10.45796308 8.43667646 18.80675683 18.80675683 18.80675771h88.05780703c10.45796308 0 18.80675683 8.43667646 18.80675685 18.80675684V847.57758067c0 10.45796308 8.43667646 18.80675683 18.80675771 18.80675683h202.39234453c10.45796308 0 18.80675683-8.43667646 18.80675683-18.80675683v-15.81876827c0.08788183-10.45796308-8.34879375-18.80675683-18.718875-18.80675683zM708.32848379 717.51215674c-67.49340908 0-122.24392119 54.75051299-122.24392207 122.24392207s54.75051299 122.24392119 122.24392206 122.24392119S830.57240498 907.24948701 830.57240498 839.75607881c0-67.58129092-54.75051299-122.24392119-122.2439212-122.24392207z m74.96338183 122.15603935c0 6.85479902-5.62445068 12.47924971-12.4792497 12.47925058h-49.91700059V902.15232911c0 6.85479902-5.62445068 12.47924971-12.47924971 12.4792497s-12.47924971-5.62445068-12.4792497-12.47924971v-49.91700058h-49.91700059c-6.85479902 0-12.47924971-5.62445068-12.47925059-12.47924971 0-6.85479902 5.62445068-12.47924971 12.47925059-12.47925058h49.91700059V777.35982852c0-6.85479902 5.62445068-12.47924971 12.4792497-12.47925059s12.47924971 5.62445068 12.47924971 12.47925059v49.9169997h49.91700059c6.85479902-0.08788183 12.47924971 5.53656885 12.4792497 12.39136787z" fill="#515151" p-id="21589"></path>
</svg>
