<svg t="1722438747344" class="icon" viewBox="0 0 1024 1024" version="1.1" xmlns="http://www.w3.org/2000/svg" p-id="23038" width="16" height="16">
    <path d="M512 128c211.2 0 384 172.8 384 384s-172.8 384-384 384S128 723.2 128 512 300.8 128 512 128m0-48C274.4 80 80 274.4 80 512s194.4 432 432 432 432-194.4 432-432S749.6 80 512 80z" fill="#515151" p-id="23039"></path>
    <path d="M512 464m-168 0a168 168 0 1 0 336 0 168 168 0 1 0-336 0Z" fill="#515151" p-id="23040"></path>
    <path d="M512 584c-146.4 0-264 117.6-264 264v4.8c72 57.6 163.2 91.2 264 91.2s189.6-33.6 264-91.2V848c0-146.4-117.6-264-264-264z" fill="#515151" p-id="23041"></path>
</svg>
