<svg t="1722420287868" class="icon" viewBox="0 0 1024 1024" version="1.1" xmlns="http://www.w3.org/2000/svg" p-id="24215" width="16" height="16">
    <path d="M776 92c24 0 36 18 36 36v342h-78V164H206v690h228V932H164c-24 0-36-18-36-36V128c0-18 18-36 36-36h612z m78 660l42 42-138 138-90-90L578 932l-138-138 42-42L572 842l90-90 90 90 102-90z m0-198l42 42-138 138-90-90-90 90-138-138 42-42L572 644l90-90 90 90 102-90z m-210-234c12 0 18 6 18 18v36c0 12-6 18-18 18H302c-12 0-18-6-18-18v-36c0-12 6-18 18-18h342z" fill="#515151" p-id="24216"></path>
</svg>
