<svg t="1722482211647" class="icon" viewBox="0 0 1024 1024" version="1.1" xmlns="http://www.w3.org/2000/svg" p-id="6669" width="16" height="16">
    <path d="M499.106909 139.636364l-10.007273 8.983272-216.994909 215.04H93.090909v512h538.996364c45.149091 0 84.526545-31.883636 94.021818-76.008727l52.968727-243.991273h114.036364c52.596364 0 95.976727-43.380364 95.976727-96.023272 0-52.596364-43.380364-96.023273-96.023273-96.023273h-343.970909l6.004364-23.970909c6.516364-5.026909 10.612364-7.121455 20.014545-20.014546 14.987636-20.48 29.975273-52.224 29.975273-94.952727C605.090909 178.967273 563.851636 139.636364 512.093091 139.636364h-13.032727z m22.993455 67.025454c13.498182 2.606545 18.990545 8.098909 18.990545 17.966546 0 28.858182-8.750545 46.778182-16.989091 57.995636-8.285091 11.264-14.010182 14.010182-14.010182 14.010182l-10.984727 6.004363-4.002909 13.032728-19.037091 71.959272-9.960727 40.029091h427.008c18.106182 0 31.976727 13.870545 31.976727 31.976728 0 18.152727-13.870545 32.023273-32.023273 32.023272h-165.981091l-6.004363 24.994909-56.971637 269.963637a32.209455 32.209455 0 0 1-32.023272 25.041454H317.067636V408.576l205.032728-202.007273zM157.090909 427.566545h96.023273v384H157.044364v-384z" fill="#2c2c2c" fill-opacity=".8" p-id="6670"></path>
</svg>
